<?xml version="1.0" encoding="UTF-8"?> <svg xmlns="http://www.w3.org/2000/svg" xmlns:xlink="http://www.w3.org/1999/xlink" id="Layer_1" viewBox="0 0 415.34 58.36"><defs><clipPath id="clippath"><polygon points="44.62 8.93 2.5 16.43 30.06 49.15 44.62 8.93" style="fill:none;"></polygon></clipPath><clipPath id="clippath-1"><path d="M84.42,31.86c-1.27-14.31,7.83-23.37,19.09-23.37,8.98,0,14.77,4.96,17.23,12.49l-10.26,3.4c-.72-3.96-3.34-6.41-7.02-6.41-4.85,0-8.25,4.35-8.25,11.21l-10.79,2.68Z" style="fill:none;"></path></clipPath><clipPath id="clippath-2"><path d="M203.38,35.26c3.4,3.85,7.92,5.63,11.99,5.63,3.35,0,5.58-1.23,5.58-3.51,0-2.57-2.84-2.9-8.98-4.13-5.85-1.17-12.26-3.34-12.26-11.49s7.08-13.27,15.95-13.27c7.02,0,12.54,2.73,15.72,6.19l-5.91,7.36c-2.62-2.9-6.13-4.57-10.09-4.57-2.95,0-4.96,1.12-4.96,3.18,0,2.29,2.45,2.67,7.3,3.68,6.25,1.28,14.05,3.01,14.05,11.93s-7.58,13.61-16.83,13.61c-6.53,0-14.16-2.57-17.51-6.69l5.97-7.92Z" style="fill:none;"></path></clipPath><clipPath id="clippath-3"><polygon points="82.09 41.94 78.93 33.19 67.98 33.19 59.61 33.19 48.99 33.19 45.84 41.94 82.09 41.94" style="fill:none;"></polygon></clipPath><clipPath id="clippath-4"><path d="M68.03,9.16l-13.99,40.03h-10.82L57.66,9.16h10.37Zm-8.42,24.03l4.18-11.93-4.18,11.93Z" style="fill:none;"></path></clipPath><clipPath id="clippath-5"><polygon points="165.05 39.84 165.05 49.1 175.76 49.1 176.66 49.1 194.21 49.1 194.21 39.84 165.05 39.84" style="fill:none;"></polygon></clipPath><clipPath id="clippath-6"><path d="M124.03,31.86c-1.27-14.31,7.83-23.37,19.09-23.37,8.98,0,14.77,4.96,17.23,12.49l-10.26,3.4c-.72-3.96-3.34-6.41-7.02-6.41-4.85,0-8.25,4.35-8.25,11.21l-10.79,2.68Z" style="fill:none;"></path></clipPath><clipPath id="clippath-7"><path d="M240.76,35.26c3.4,3.85,7.92,5.63,11.99,5.63,3.35,0,5.58-1.23,5.58-3.51,0-2.57-2.84-2.9-8.98-4.13-5.85-1.17-12.26-3.34-12.26-11.49s7.08-13.27,15.95-13.27c7.02,0,12.54,2.73,15.72,6.19l-5.91,7.36c-2.62-2.9-6.13-4.57-10.09-4.57-2.95,0-4.96,1.12-4.96,3.18,0,2.29,2.45,2.67,7.3,3.68,6.25,1.28,14.05,3.01,14.05,11.93s-7.58,13.61-16.83,13.61c-6.53,0-14.16-2.57-17.51-6.69l5.97-7.92Z" style="fill:none;"></path></clipPath><clipPath id="clippath-8"><path d="M240.76,35.26c3.4,3.85,7.92,5.63,11.99,5.63,3.35,0,5.58-1.23,5.58-3.51,0-2.57-2.84-2.9-8.98-4.13-5.85-1.17-12.26-3.34-12.26-11.49s7.08-13.27,15.95-13.27c7.02,0,12.54,2.73,15.72,6.19l-5.91,7.36c-2.62-2.9-6.13-4.57-10.09-4.57-2.95,0-4.96,1.12-4.96,3.18,0,2.29,2.45,2.67,7.3,3.68,6.25,1.28,14.05,3.01,14.05,11.93s-7.58,13.61-16.83,13.61c-6.53,0-14.16-2.57-17.51-6.69l5.97-7.92Z" style="fill:none;"></path></clipPath><clipPath id="clippath-9"><polygon points="165.05 24.22 165.05 33.48 175.76 33.48 176.66 33.48 191.15 33.48 191.15 24.22 165.05 24.22" style="fill:none;"></polygon></clipPath><clipPath id="clippath-10"><polygon points="165.05 9.16 165.05 18.42 175.76 18.42 176.66 18.42 194.21 18.42 194.21 9.16 165.05 9.16" style="fill:none;"></polygon></clipPath></defs><g><g><g style="clip-path:url(#clippath);"><polygon points="2.5 21.6 30.06 49.15 2.5 49.15 2.5 21.6" style="fill:#e47637;"></polygon><polygon points="2.5 21.03 30.62 49.15 30.06 49.15 2.5 21.6 2.5 21.03" style="fill:#e47637;"></polygon><polygon points="2.5 20.47 31.19 49.15 30.62 49.15 2.5 21.03 2.5 20.47" style="fill:#e47737;"></polygon><polygon points="2.5 19.91 31.75 49.15 31.19 49.15 2.5 20.47 2.5 19.91" style="fill:#e57838;"></polygon><polygon points="2.5 19.34 32.31 49.15 31.75 49.15 2.5 19.91 2.5 19.34" style="fill:#e57938;"></polygon><polygon points="2.5 18.78 32.87 49.15 32.31 49.15 2.5 19.34 2.5 18.78" style="fill:#e57a38;"></polygon><polygon points="2.5 18.22 33.16 48.88 32.89 49.15 32.87 49.15 2.5 18.78 2.5 18.22" style="fill:#e67b39;"></polygon><polygon points="2.5 17.66 33.44 48.6 33.16 48.88 2.5 18.22 2.5 17.66" style="fill:#e67c39;"></polygon><polygon points="2.5 17.09 33.73 48.32 33.44 48.6 2.5 17.66 2.5 17.09" style="fill:#e67d39;"></polygon><polygon points="2.5 16.53 34.01 48.03 33.73 48.32 2.5 17.09 2.5 16.53" style="fill:#e77e3a;"></polygon><polygon points="2.5 15.97 34.29 47.75 34.01 48.03 2.5 16.53 2.5 15.97" style="fill:#e77f3a;"></polygon><polygon points="2.5 15.4 34.57 47.47 34.29 47.75 2.5 15.97 2.5 15.4" style="fill:#e7803a;"></polygon><polygon points="2.5 14.84 34.85 47.19 34.57 47.47 2.5 15.4 2.5 14.84" style="fill:#e7813a;"></polygon><polygon points="2.5 14.28 35.13 46.91 34.85 47.19 2.5 14.84 2.5 14.28" style="fill:#e8823b;"></polygon><polygon points="2.5 13.72 35.41 46.63 35.13 46.91 2.5 14.28 2.5 13.72" style="fill:#e8833b;"></polygon><polygon points="2.5 13.6 2.73 13.38 35.7 46.35 35.41 46.63 2.5 13.72 2.5 13.6" style="fill:#e8843b;"></polygon><rect x="19.15" y="6.41" width=".4" height="46.62" transform="translate(-15.35 22.39) rotate(-45)" style="fill:#e9853c;"></rect><rect x="19.44" y="6.13" width=".4" height="46.62" transform="translate(-15.07 22.51) rotate(-45)" style="fill:#e9863c;"></rect><rect x="19.72" y="5.85" width=".4" height="46.62" transform="translate(-14.79 22.62) rotate(-45)" style="fill:#e9873c;"></rect><rect x="20" y="5.57" width=".4" height="46.62" transform="translate(-14.5 22.74) rotate(-45)" style="fill:#ea883d;"></rect><rect x="20.28" y="5.28" width=".4" height="46.62" transform="translate(-14.22 22.86) rotate(-45)" style="fill:#ea893d;"></rect><rect x="20.56" y="5" width=".4" height="46.62" transform="translate(-13.94 22.97) rotate(-45)" style="fill:#ea8a3d;"></rect><rect x="20.84" y="4.72" width=".4" height="46.62" transform="translate(-13.66 23.09) rotate(-45)" style="fill:#eb8b3e;"></rect><rect x="21.12" y="4.44" width=".4" height="46.62" transform="translate(-13.38 23.21) rotate(-45)" style="fill:#eb8c3e;"></rect><rect x="21.4" y="4.16" width=".4" height="46.62" transform="translate(-13.1 23.32) rotate(-45)" style="fill:#eb8d3e;"></rect><rect x="21.69" y="3.88" width=".4" height="46.62" transform="translate(-12.82 23.44) rotate(-45)" style="fill:#ec8e3f;"></rect><rect x="21.97" y="3.6" width=".4" height="46.62" transform="translate(-12.53 23.56) rotate(-45)" style="fill:#ec8f3f;"></rect><rect x="22.25" y="3.31" width=".4" height="46.62" transform="translate(-12.25 23.67) rotate(-45)" style="fill:#ec903f;"></rect><rect x="22.53" y="3.03" width=".4" height="46.62" transform="translate(-11.97 23.79) rotate(-45)" style="fill:#ed9140;"></rect><rect x="22.81" y="2.75" width=".4" height="46.62" transform="translate(-11.69 23.9) rotate(-45)" style="fill:#ed9240;"></rect><rect x="23.09" y="2.47" width=".4" height="46.62" transform="translate(-11.41 24.02) rotate(-45)" style="fill:#ed9340;"></rect><polygon points="6.95 9.16 7.18 8.93 7.28 8.93 40.2 41.84 39.92 42.13 6.95 9.16" style="fill:#ee9441;"></polygon><polygon points="7.84 8.93 40.48 41.56 40.2 41.84 7.28 8.93 7.84 8.93" style="fill:#ee9541;"></polygon><polygon points="8.41 8.93 40.76 41.28 40.48 41.56 7.84 8.93 8.41 8.93" style="fill:#ee9641;"></polygon><polygon points="8.97 8.93 41.04 41 40.76 41.28 8.41 8.93 8.97 8.93" style="fill:#ee9741;"></polygon><polygon points="9.53 8.93 41.32 40.72 41.04 41 8.97 8.93 9.53 8.93" style="fill:#ef9842;"></polygon><polygon points="10.09 8.93 41.6 40.44 41.32 40.72 9.53 8.93 10.09 8.93" style="fill:#ef9942;"></polygon><polygon points="10.66 8.93 41.89 40.16 41.6 40.44 10.09 8.93 10.66 8.93" style="fill:#ef9a42;"></polygon><polygon points="11.22 8.93 42.17 39.87 41.89 40.16 10.66 8.93 11.22 8.93" style="fill:#f09b43;"></polygon><polygon points="11.78 8.93 42.45 39.59 42.17 39.87 11.22 8.93 11.78 8.93" style="fill:#f09c43;"></polygon><polygon points="12.35 8.93 42.73 39.31 42.45 39.59 11.78 8.93 12.35 8.93" style="fill:#f09d43;"></polygon><polygon points="12.91 8.93 43.01 39.03 42.73 39.31 12.35 8.93 12.91 8.93" style="fill:#f19e44;"></polygon><polygon points="13.47 8.93 43.29 38.75 43.01 39.03 12.91 8.93 13.47 8.93" style="fill:#f19f44;"></polygon><polygon points="14.03 8.93 43.57 38.47 43.29 38.75 13.47 8.93 14.03 8.93" style="fill:#f1a044;"></polygon><polygon points="14.6 8.93 43.86 38.19 43.57 38.47 14.03 8.93 14.6 8.93" style="fill:#f2a245;"></polygon><polygon points="15.16 8.93 44.14 37.9 43.86 38.19 14.6 8.93 15.16 8.93" style="fill:#f2a345;"></polygon><polygon points="15.72 8.93 44.42 37.62 44.14 37.9 15.16 8.93 15.72 8.93" style="fill:#f2a445;"></polygon><polygon points="16.29 8.93 44.62 37.26 44.62 37.42 44.42 37.62 15.72 8.93 16.29 8.93" style="fill:#f3a546;"></polygon><polygon points="16.85 8.93 44.62 36.7 44.62 37.26 16.29 8.93 16.85 8.93" style="fill:#f3a646;"></polygon><polygon points="17.41 8.93 44.62 36.13 44.62 36.7 16.85 8.93 17.41 8.93" style="fill:#f3a746;"></polygon><polygon points="17.97 8.93 44.62 35.57 44.62 36.13 17.41 8.93 17.97 8.93" style="fill:#f4a847;"></polygon><polygon points="18.54 8.93 44.62 35.01 44.62 35.57 17.97 8.93 18.54 8.93" style="fill:#f4a947;"></polygon><polygon points="19.1 8.93 44.62 34.45 44.62 35.01 18.54 8.93 19.1 8.93" style="fill:#f4aa47;"></polygon><polygon points="19.66 8.93 44.62 33.88 44.62 34.45 19.1 8.93 19.66 8.93" style="fill:#f5ab48;"></polygon><polygon points="20.22 8.93 44.62 33.32 44.62 33.88 19.66 8.93 20.22 8.93" style="fill:#f5ac48;"></polygon><polygon points="20.79 8.93 44.62 32.76 44.62 33.32 20.22 8.93 20.79 8.93" style="fill:#f5ad48;"></polygon><polygon points="21.35 8.93 44.62 32.2 44.62 32.76 20.79 8.93 21.35 8.93" style="fill:#f5ae48;"></polygon><polygon points="21.91 8.93 44.62 31.63 44.62 32.2 21.35 8.93 21.91 8.93" style="fill:#f6af49;"></polygon><polygon points="22.48 8.93 44.62 31.07 44.62 31.63 21.91 8.93 22.48 8.93" style="fill:#f6b049;"></polygon><polygon points="23.04 8.93 44.62 30.51 44.62 31.07 22.48 8.93 23.04 8.93" style="fill:#f6b149;"></polygon><polygon points="23.6 8.93 44.62 29.94 44.62 30.51 23.04 8.93 23.6 8.93" style="fill:#f7b24a;"></polygon><polygon points="24.16 8.93 44.62 29.38 44.62 29.94 23.6 8.93 24.16 8.93" style="fill:#f7b34a;"></polygon><polygon points="24.73 8.93 44.62 28.82 44.62 29.38 24.16 8.93 24.73 8.93" style="fill:#f7b44a;"></polygon><polygon points="25.29 8.93 44.62 28.26 44.62 28.82 24.73 8.93 25.29 8.93" style="fill:#f8b54b;"></polygon><polygon points="25.85 8.93 44.62 27.69 44.62 28.26 25.29 8.93 25.85 8.93" style="fill:#f8b64b;"></polygon><polygon points="26.42 8.93 44.62 27.13 44.62 27.69 25.85 8.93 26.42 8.93" style="fill:#f8b74b;"></polygon><polygon points="26.98 8.93 44.62 26.57 44.62 27.13 26.42 8.93 26.98 8.93" style="fill:#f9b84c;"></polygon><polygon points="27.54 8.93 44.62 26 44.62 26.57 26.98 8.93 27.54 8.93" style="fill:#f9b94c;"></polygon><polygon points="28.1 8.93 44.62 25.44 44.62 26 27.54 8.93 28.1 8.93" style="fill:#f9ba4c;"></polygon><polygon points="28.67 8.93 44.62 24.88 44.62 25.44 28.1 8.93 28.67 8.93" style="fill:#fabb4d;"></polygon><polygon points="29.23 8.93 44.62 24.32 44.62 24.88 28.67 8.93 29.23 8.93" style="fill:#fabc4d;"></polygon><polygon points="29.79 8.93 44.62 23.75 44.62 24.32 29.23 8.93 29.79 8.93" style="fill:#fabd4d;"></polygon><polygon points="30.35 8.93 44.62 23.19 44.62 23.75 29.79 8.93 30.35 8.93" style="fill:#fbbe4e;"></polygon><polygon points="30.92 8.93 44.62 22.63 44.62 23.19 30.35 8.93 30.92 8.93" style="fill:#fbbf4e;"></polygon><polygon points="31.48 8.93 44.62 22.07 44.62 22.63 30.92 8.93 31.48 8.93" style="fill:#fbc04e;"></polygon><polygon points="32.04 8.93 44.62 21.5 44.62 22.07 31.48 8.93 32.04 8.93" style="fill:#fcc14f;"></polygon><polygon points="32.61 8.93 44.62 20.94 44.62 21.5 32.04 8.93 32.61 8.93" style="fill:#fcc24f;"></polygon><polygon points="33.17 8.93 44.62 20.38 44.62 20.94 32.61 8.93 33.17 8.93" style="fill:#fcc34f;"></polygon><polygon points="33.73 8.93 44.62 19.81 44.62 20.38 33.17 8.93 33.73 8.93" style="fill:#fcc44f;"></polygon><polygon points="34.29 8.93 44.62 19.25 44.62 19.81 33.73 8.93 34.29 8.93" style="fill:#fdc550;"></polygon><polygon points="34.86 8.93 44.62 18.69 44.62 19.25 34.29 8.93 34.86 8.93" style="fill:#fdc650;"></polygon><polygon points="35.42 8.93 44.62 18.13 44.62 18.69 34.86 8.93 35.42 8.93" style="fill:#fdc750;"></polygon><polygon points="35.98 8.93 44.62 17.56 44.62 18.13 35.42 8.93 35.98 8.93" style="fill:#fec851;"></polygon><polygon points="36.55 8.93 44.62 17 44.62 17.56 35.98 8.93 36.55 8.93" style="fill:#fec951;"></polygon><polygon points="37.11 8.93 44.62 16.44 44.62 17 36.55 8.93 37.11 8.93" style="fill:#feca51;"></polygon><polygon points="37.67 8.93 44.62 15.87 44.62 16.44 37.11 8.93 37.67 8.93" style="fill:#ffcb52;"></polygon><polygon points="38.23 8.93 44.62 15.31 44.62 15.87 37.67 8.93 38.23 8.93" style="fill:#ffcc52;"></polygon><polygon points="44.62 15.31 38.23 8.93 44.62 8.93 44.62 15.31" style="fill:#ffcc52;"></polygon></g><rect x="15.25" y="25.56" width="8.79" height="8.79" transform="translate(29.91 -4.37) rotate(49.9)" style="fill:#fff;"></rect><rect x="8.52" y="31.23" width="8.79" height="8.79" transform="translate(31.84 2.79) rotate(49.9)" style="fill:#1a5b6e;"></rect><rect x="1.8" y="36.89" width="8.79" height="8.79" transform="translate(33.78 9.95) rotate(49.9)" style="fill:#f07537;"></rect><rect x="2.86" y="24.5" width="8.79" height="8.79" transform="translate(24.69 4.73) rotate(49.9)" style="fill:#48c0b9;"></rect><rect x="14.19" y="37.95" width="8.79" height="8.79" transform="translate(39 .85) rotate(49.9)" style="fill:#008597;"></rect></g><g><g><path d="M70.26,9.16l14.44,40.03h-11.09l-2.57-7.25h-14.5l-2.51,7.25h-10.82L57.66,9.16h12.6Zm-10.65,24.03h8.37l-4.18-11.93-4.18,11.93Z"></path><path d="M103.46,40.38c3.68,0,6.3-2.45,7.02-6.41l10.26,3.4c-2.45,7.53-8.25,12.49-17.23,12.49-11.26,0-19.24-8.64-19.24-20.69s7.97-20.69,19.24-20.69c8.98,0,14.77,4.96,17.23,12.49l-10.26,3.4c-.72-3.96-3.34-6.41-7.02-6.41-4.85,0-8.25,4.35-8.25,11.21s3.4,11.21,8.25,11.21Z" style="fill:#008597;"></path><g style="clip-path:url(#clippath-1);"><polygon points="83.15 30.59 84.42 31.86 83.15 31.86 83.15 30.59" style="fill:#008597;"></polygon><polygon points="83.15 29.89 85.12 31.86 84.42 31.86 83.15 30.59 83.15 29.89" style="fill:#008597;"></polygon><polygon points="83.15 29.19 85.82 31.86 85.12 31.86 83.15 29.89 83.15 29.19" style="fill:#018697;"></polygon><polygon points="83.15 28.49 86.52 31.86 85.82 31.86 83.15 29.19 83.15 28.49" style="fill:#028798;"></polygon><polygon points="83.15 27.79 87.22 31.86 86.52 31.86 83.15 28.49 83.15 27.79" style="fill:#038798;"></polygon><polygon points="83.15 27.1 87.92 31.86 87.22 31.86 83.15 27.79 83.15 27.1" style="fill:#048899;"></polygon><polygon points="83.15 26.4 88.62 31.86 87.92 31.86 83.15 27.1 83.15 26.4" style="fill:#058999;"></polygon><polygon points="83.15 25.7 89.31 31.86 88.62 31.86 83.15 26.4 83.15 25.7" style="fill:#068a9a;"></polygon><polygon points="83.15 25 90.01 31.86 89.31 31.86 83.15 25.7 83.15 25" style="fill:#078b9a;"></polygon><polygon points="83.15 24.3 90.71 31.86 90.01 31.86 83.15 25 83.15 24.3" style="fill:#088c9b;"></polygon><polygon points="83.15 23.6 91.41 31.86 90.71 31.86 83.15 24.3 83.15 23.6" style="fill:#098c9b;"></polygon><polygon points="83.15 22.9 92.11 31.86 91.41 31.86 83.15 23.6 83.15 22.9" style="fill:#0a8d9c;"></polygon><polygon points="83.15 22.2 92.81 31.86 92.11 31.86 83.15 22.9 83.15 22.2" style="fill:#0b8e9c;"></polygon><polygon points="83.15 21.51 93.51 31.86 92.81 31.86 83.15 22.2 83.15 21.51" style="fill:#0c8f9d;"></polygon><polygon points="83.15 20.81 94.21 31.86 93.51 31.86 83.15 21.51 83.15 20.81" style="fill:#0d909d;"></polygon><polygon points="83.15 20.11 94.9 31.86 94.21 31.86 83.15 20.81 83.15 20.11" style="fill:#0e919e;"></polygon><polygon points="83.15 19.41 95.6 31.86 94.9 31.86 83.15 20.11 83.15 19.41" style="fill:#0f919e;"></polygon><polygon points="83.15 18.71 96.3 31.86 95.6 31.86 83.15 19.41 83.15 18.71" style="fill:#10929f;"></polygon><polygon points="83.15 18.01 97 31.86 96.3 31.86 83.15 18.71 83.15 18.01" style="fill:#11939f;"></polygon><polygon points="83.15 17.31 97.7 31.86 97 31.86 83.15 18.01 83.15 17.31" style="fill:#1294a0;"></polygon><polygon points="83.15 16.62 98.4 31.86 97.7 31.86 83.15 17.31 83.15 16.62" style="fill:#1395a0;"></polygon><polygon points="83.15 15.92 99.1 31.86 98.4 31.86 83.15 16.62 83.15 15.92" style="fill:#1496a1;"></polygon><polygon points="83.15 15.22 99.8 31.86 99.1 31.86 83.15 15.92 83.15 15.22" style="fill:#1596a1;"></polygon><polygon points="83.15 14.72 83.26 14.62 100.49 31.86 99.8 31.86 83.15 15.22 83.15 14.72" style="fill:#1697a2;"></polygon><polygon points="83.26 14.62 83.6 14.27 101.19 31.86 100.49 31.86 83.26 14.62" style="fill:#1798a2;"></polygon><polygon points="83.6 14.27 83.95 13.92 101.89 31.86 101.19 31.86 83.6 14.27" style="fill:#1899a2;"></polygon><polygon points="83.95 13.92 84.3 13.57 102.59 31.86 101.89 31.86 83.95 13.92" style="fill:#199aa3;"></polygon><polygon points="84.3 13.57 84.65 13.22 103.29 31.86 102.59 31.86 84.3 13.57" style="fill:#1a9ba3;"></polygon><polygon points="84.65 13.22 85 12.87 103.99 31.86 103.29 31.86 84.65 13.22" style="fill:#1b9ba4;"></polygon><polygon points="85 12.87 85.35 12.53 104.69 31.86 103.99 31.86 85 12.87" style="fill:#1c9ca4;"></polygon><polygon points="85.35 12.53 85.7 12.18 105.39 31.86 104.69 31.86 85.35 12.53" style="fill:#1d9da5;"></polygon><polygon points="85.7 12.18 86.05 11.83 106.08 31.86 105.39 31.86 85.7 12.18" style="fill:#1e9ea5;"></polygon><polygon points="86.05 11.83 86.4 11.48 106.78 31.86 106.08 31.86 86.05 11.83" style="fill:#1f9fa6;"></polygon><polygon points="86.4 11.48 86.75 11.13 107.48 31.86 106.78 31.86 86.4 11.48" style="fill:#20a0a6;"></polygon><polygon points="86.75 11.13 87.1 10.78 108.18 31.86 107.48 31.86 86.75 11.13" style="fill:#21a0a7;"></polygon><polygon points="87.1 10.78 87.45 10.43 108.88 31.86 108.18 31.86 87.1 10.78" style="fill:#22a1a7;"></polygon><polygon points="87.45 10.43 87.8 10.08 109.58 31.86 108.88 31.86 87.45 10.43" style="fill:#23a2a8;"></polygon><polygon points="87.8 10.08 88.15 9.73 110.28 31.86 109.58 31.86 87.8 10.08" style="fill:#25a3a8;"></polygon><polygon points="88.15 9.73 88.5 9.38 110.97 31.86 110.28 31.86 88.15 9.73" style="fill:#26a4a9;"></polygon><polygon points="88.5 9.38 88.85 9.03 111.67 31.86 110.97 31.86 88.5 9.38" style="fill:#27a5a9;"></polygon><polygon points="88.85 9.03 89.19 8.68 112.37 31.86 111.67 31.86 88.85 9.03" style="fill:#28a5aa;"></polygon><polygon points="89.19 8.68 89.38 8.49 89.7 8.49 112.88 31.67 112.69 31.86 112.37 31.86 89.19 8.68" style="fill:#29a6aa;"></polygon><polygon points="90.4 8.49 113.23 31.32 112.88 31.67 89.7 8.49 90.4 8.49" style="fill:#2aa7ab;"></polygon><polygon points="91.1 8.49 113.58 30.97 113.23 31.32 90.4 8.49 91.1 8.49" style="fill:#2ba8ab;"></polygon><polygon points="91.8 8.49 113.93 30.62 113.58 30.97 91.1 8.49 91.8 8.49" style="fill:#2ca9ac;"></polygon><polygon points="92.5 8.49 114.28 30.27 113.93 30.62 91.8 8.49 92.5 8.49" style="fill:#2daaac;"></polygon><polygon points="93.2 8.49 114.63 29.92 114.28 30.27 92.5 8.49 93.2 8.49" style="fill:#2eaaad;"></polygon><polygon points="93.9 8.49 114.98 29.58 114.63 29.92 93.2 8.49 93.9 8.49" style="fill:#2fabad;"></polygon><polygon points="94.59 8.49 115.33 29.23 114.98 29.58 93.9 8.49 94.59 8.49" style="fill:#30acae;"></polygon><polygon points="95.29 8.49 115.68 28.88 115.33 29.23 94.59 8.49 95.29 8.49" style="fill:#31adae;"></polygon><polygon points="95.99 8.49 116.03 28.53 115.68 28.88 95.29 8.49 95.99 8.49" style="fill:#32aeae;"></polygon><polygon points="96.69 8.49 116.38 28.18 116.03 28.53 95.99 8.49 96.69 8.49" style="fill:#33afaf;"></polygon><polygon points="97.39 8.49 116.73 27.83 116.38 28.18 96.69 8.49 97.39 8.49" style="fill:#34afaf;"></polygon><polygon points="98.09 8.49 117.07 27.48 116.73 27.83 97.39 8.49 98.09 8.49" style="fill:#35b0b0;"></polygon><polygon points="98.79 8.49 117.42 27.13 117.07 27.48 98.09 8.49 98.79 8.49" style="fill:#36b1b0;"></polygon><polygon points="99.49 8.49 117.77 26.78 117.42 27.13 98.79 8.49 99.49 8.49" style="fill:#37b2b1;"></polygon><polygon points="100.18 8.49 118.12 26.43 117.77 26.78 99.49 8.49 100.18 8.49" style="fill:#38b3b1;"></polygon><polygon points="100.88 8.49 118.47 26.08 118.12 26.43 100.18 8.49 100.88 8.49" style="fill:#39b4b2;"></polygon><polygon points="101.58 8.49 118.82 25.73 118.47 26.08 100.88 8.49 101.58 8.49" style="fill:#3ab4b2;"></polygon><polygon points="102.28 8.49 119.17 25.38 118.82 25.73 101.58 8.49 102.28 8.49" style="fill:#3bb5b3;"></polygon><polygon points="102.98 8.49 119.52 25.03 119.17 25.38 102.28 8.49 102.98 8.49" style="fill:#3cb6b3;"></polygon><polygon points="103.68 8.49 119.87 24.68 119.52 25.03 102.98 8.49 103.68 8.49" style="fill:#3db7b4;"></polygon><polygon points="104.38 8.49 120.22 24.33 119.87 24.68 103.68 8.49 104.38 8.49" style="fill:#3eb8b4;"></polygon><polygon points="105.08 8.49 120.57 23.99 120.22 24.33 104.38 8.49 105.08 8.49" style="fill:#3fb9b5;"></polygon><polygon points="105.77 8.49 120.74 23.46 120.74 23.81 120.57 23.99 105.08 8.49 105.77 8.49" style="fill:#40b9b5;"></polygon><polygon points="106.47 8.49 120.74 22.76 120.74 23.46 105.77 8.49 106.47 8.49" style="fill:#41bab6;"></polygon><polygon points="107.17 8.49 120.74 22.06 120.74 22.76 106.47 8.49 107.17 8.49" style="fill:#42bbb6;"></polygon><polygon points="107.87 8.49 120.74 21.37 120.74 22.06 107.17 8.49 107.87 8.49" style="fill:#43bcb7;"></polygon><polygon points="108.57 8.49 120.74 20.67 120.74 21.37 107.87 8.49 108.57 8.49" style="fill:#44bdb7;"></polygon><polygon points="109.27 8.49 120.74 19.97 120.74 20.67 108.57 8.49 109.27 8.49" style="fill:#45beb8;"></polygon><polygon points="109.97 8.49 120.74 19.27 120.74 19.97 109.27 8.49 109.97 8.49" style="fill:#46beb8;"></polygon><polygon points="110.67 8.49 120.74 18.57 120.74 19.27 109.97 8.49 110.67 8.49" style="fill:#47bfb9;"></polygon><polygon points="111.36 8.49 120.74 17.87 120.74 18.57 110.67 8.49 111.36 8.49" style="fill:#48c0b9;"></polygon><polygon points="120.74 17.87 111.36 8.49 120.74 8.49 120.74 17.87" style="fill:#48c0b9;"></polygon></g><path d="M143.01,40.38c3.68,0,6.3-2.45,7.02-6.41l10.26,3.4c-2.45,7.53-8.25,12.49-17.23,12.49-11.26,0-19.24-8.64-19.24-20.69s7.97-20.69,19.24-20.69c8.98,0,14.77,4.96,17.23,12.49l-10.26,3.4c-.72-3.96-3.34-6.41-7.02-6.41-4.85,0-8.25,4.35-8.25,11.21s3.4,11.21,8.25,11.21Z" style="fill:#008597;"></path><g style="clip-path:url(#clippath-2);"><polygon points="231.76 32.98 217.62 8.49 231.76 8.49 231.76 32.98" style="fill:#008597;"></polygon><polygon points="231.76 33.95 217.06 8.49 217.62 8.49 231.76 32.98 231.76 33.95" style="fill:#008597;"></polygon><polygon points="231.76 34.92 216.5 8.49 217.06 8.49 231.76 33.95 231.76 34.92" style="fill:#018697;"></polygon><polygon points="231.76 35.88 215.94 8.49 216.5 8.49 231.76 34.92 231.76 35.88" style="fill:#028798;"></polygon><polygon points="231.76 36.85 215.39 8.49 215.94 8.49 231.76 35.88 231.76 36.85" style="fill:#038798;"></polygon><polygon points="231.76 37.82 214.83 8.49 215.39 8.49 231.76 36.85 231.76 37.82" style="fill:#048899;"></polygon><polygon points="231.76 38.79 214.27 8.49 214.83 8.49 231.76 37.82 231.76 38.79" style="fill:#058999;"></polygon><polygon points="231.76 39.75 213.71 8.49 214.27 8.49 231.76 38.79 231.76 39.75" style="fill:#068a9a;"></polygon><polygon points="231.76 40.72 213.15 8.49 213.71 8.49 231.76 39.75 231.76 40.72" style="fill:#078b9a;"></polygon><polygon points="231.76 41.69 212.59 8.49 213.15 8.49 231.76 40.72 231.76 41.69" style="fill:#088c9b;"></polygon><polygon points="231.76 42.66 212.03 8.49 212.59 8.49 231.76 41.69 231.76 42.66" style="fill:#098c9b;"></polygon><polygon points="231.76 43.63 211.48 8.49 212.03 8.49 231.76 42.66 231.76 43.63" style="fill:#0a8d9c;"></polygon><polygon points="231.76 44.59 210.92 8.49 211.48 8.49 231.76 43.63 231.76 44.59" style="fill:#0b8e9c;"></polygon><polygon points="231.76 45.56 210.36 8.49 210.92 8.49 231.76 44.59 231.76 45.56" style="fill:#0c8f9d;"></polygon><polygon points="231.76 46.53 209.8 8.49 210.36 8.49 231.76 45.56 231.76 46.53" style="fill:#0d909d;"></polygon><polygon points="231.76 47.5 209.24 8.49 209.8 8.49 231.76 46.53 231.76 47.5" style="fill:#0e919e;"></polygon><polygon points="231.76 47.8 231.47 47.96 208.68 8.49 209.24 8.49 231.76 47.5 231.76 47.8" style="fill:#0f919e;"></polygon><polygon points="231.47 47.96 231.05 48.21 208.12 8.49 208.68 8.49 231.47 47.96" style="fill:#10929f;"></polygon><polygon points="231.05 48.21 230.63 48.45 207.56 8.49 208.12 8.49 231.05 48.21" style="fill:#11939f;"></polygon><polygon points="230.63 48.45 230.21 48.69 207.01 8.49 207.56 8.49 230.63 48.45" style="fill:#1294a0;"></polygon><polygon points="230.21 48.69 229.79 48.93 206.45 8.49 207.01 8.49 230.21 48.69" style="fill:#1395a0;"></polygon><polygon points="229.79 48.93 229.38 49.17 205.89 8.49 206.45 8.49 229.79 48.93" style="fill:#1496a1;"></polygon><polygon points="229.38 49.17 228.96 49.42 205.33 8.49 205.89 8.49 229.38 49.17" style="fill:#1596a1;"></polygon><polygon points="228.96 49.42 228.54 49.66 204.77 8.49 205.33 8.49 228.96 49.42" style="fill:#1697a2;"></polygon><polygon points="228.54 49.66 228.18 49.86 228.1 49.86 204.21 8.49 204.77 8.49 228.54 49.66" style="fill:#1798a2;"></polygon><polygon points="227.54 49.86 203.65 8.49 204.21 8.49 228.1 49.86 227.54 49.86" style="fill:#1899a2;"></polygon><polygon points="226.98 49.86 203.09 8.49 203.65 8.49 227.54 49.86 226.98 49.86" style="fill:#199aa3;"></polygon><polygon points="226.42 49.86 202.6 8.6 202.78 8.49 203.09 8.49 226.98 49.86 226.42 49.86" style="fill:#1a9ba3;"></polygon><polygon points="225.86 49.86 202.18 8.84 202.6 8.6 226.42 49.86 225.86 49.86" style="fill:#1b9ba4;"></polygon><polygon points="225.3 49.86 201.76 9.08 202.18 8.84 225.86 49.86 225.3 49.86" style="fill:#1c9ca4;"></polygon><polygon points="224.75 49.86 201.34 9.32 201.76 9.08 225.3 49.86 224.75 49.86" style="fill:#1d9da5;"></polygon><polygon points="224.19 49.86 200.92 9.57 201.34 9.32 224.75 49.86 224.19 49.86" style="fill:#1e9ea5;"></polygon><polygon points="223.63 49.86 200.5 9.81 200.92 9.57 224.19 49.86 223.63 49.86" style="fill:#1f9fa6;"></polygon><polygon points="223.07 49.86 200.08 10.05 200.5 9.81 223.63 49.86 223.07 49.86" style="fill:#20a0a6;"></polygon><polygon points="222.51 49.86 199.66 10.29 200.08 10.05 223.07 49.86 222.51 49.86" style="fill:#21a0a7;"></polygon><polygon points="221.95 49.86 199.24 10.53 199.66 10.29 222.51 49.86 221.95 49.86" style="fill:#22a1a7;"></polygon><polygon points="221.39 49.86 198.83 10.78 199.24 10.53 221.95 49.86 221.39 49.86" style="fill:#23a2a8;"></polygon><polygon points="220.83 49.86 198.41 11.02 198.83 10.78 221.39 49.86 220.83 49.86" style="fill:#25a3a8;"></polygon><polygon points="220.28 49.86 197.99 11.26 198.41 11.02 220.83 49.86 220.28 49.86" style="fill:#26a4a9;"></polygon><polygon points="219.72 49.86 197.57 11.5 197.99 11.26 220.28 49.86 219.72 49.86" style="fill:#27a5a9;"></polygon><polygon points="219.16 49.86 197.42 12.2 197.42 11.59 197.57 11.5 219.72 49.86 219.16 49.86" style="fill:#28a5aa;"></polygon><polygon points="218.6 49.86 197.42 13.17 197.42 12.2 219.16 49.86 218.6 49.86" style="fill:#29a6aa;"></polygon><polygon points="218.04 49.86 197.42 14.14 197.42 13.17 218.6 49.86 218.04 49.86" style="fill:#2aa7ab;"></polygon><polygon points="217.48 49.86 197.42 15.11 197.42 14.14 218.04 49.86 217.48 49.86" style="fill:#2ba8ab;"></polygon><polygon points="216.92 49.86 197.42 16.08 197.42 15.11 217.48 49.86 216.92 49.86" style="fill:#2ca9ac;"></polygon><polygon points="216.36 49.86 197.42 17.04 197.42 16.08 216.92 49.86 216.36 49.86" style="fill:#2daaac;"></polygon><polygon points="215.81 49.86 197.42 18.01 197.42 17.04 216.36 49.86 215.81 49.86" style="fill:#2eaaad;"></polygon><polygon points="215.25 49.86 197.42 18.98 197.42 18.01 215.81 49.86 215.25 49.86" style="fill:#2fabad;"></polygon><polygon points="214.69 49.86 197.42 19.95 197.42 18.98 215.25 49.86 214.69 49.86" style="fill:#30acae;"></polygon><polygon points="214.13 49.86 197.42 20.91 197.42 19.95 214.69 49.86 214.13 49.86" style="fill:#31adae;"></polygon><polygon points="213.57 49.86 197.42 21.88 197.42 20.91 214.13 49.86 213.57 49.86" style="fill:#32aeae;"></polygon><polygon points="213.01 49.86 197.42 22.85 197.42 21.88 213.57 49.86 213.01 49.86" style="fill:#33afaf;"></polygon><polygon points="212.45 49.86 197.42 23.82 197.42 22.85 213.01 49.86 212.45 49.86" style="fill:#34afaf;"></polygon><polygon points="211.9 49.86 197.42 24.78 197.42 23.82 212.45 49.86 211.9 49.86" style="fill:#35b0b0;"></polygon><polygon points="211.34 49.86 197.42 25.75 197.42 24.78 211.9 49.86 211.34 49.86" style="fill:#36b1b0;"></polygon><polygon points="210.78 49.86 197.42 26.72 197.42 25.75 211.34 49.86 210.78 49.86" style="fill:#37b2b1;"></polygon><polygon points="210.22 49.86 197.42 27.69 197.42 26.72 210.78 49.86 210.22 49.86" style="fill:#38b3b1;"></polygon><polygon points="209.66 49.86 197.42 28.66 197.42 27.69 210.22 49.86 209.66 49.86" style="fill:#39b4b2;"></polygon><polygon points="209.1 49.86 197.42 29.62 197.42 28.66 209.66 49.86 209.1 49.86" style="fill:#3ab4b2;"></polygon><polygon points="208.54 49.86 197.42 30.59 197.42 29.62 209.1 49.86 208.54 49.86" style="fill:#3bb5b3;"></polygon><polygon points="207.98 49.86 197.42 31.56 197.42 30.59 208.54 49.86 207.98 49.86" style="fill:#3cb6b3;"></polygon><polygon points="207.43 49.86 197.42 32.53 197.42 31.56 207.98 49.86 207.43 49.86" style="fill:#3db7b4;"></polygon><polygon points="206.87 49.86 197.42 33.49 197.42 32.53 207.43 49.86 206.87 49.86" style="fill:#3eb8b4;"></polygon><polygon points="206.31 49.86 197.42 34.46 197.42 33.49 206.87 49.86 206.31 49.86" style="fill:#3fb9b5;"></polygon><polygon points="205.75 49.86 197.42 35.43 197.42 34.46 206.31 49.86 205.75 49.86" style="fill:#40b9b5;"></polygon><polygon points="205.19 49.86 197.42 36.4 197.42 35.43 205.75 49.86 205.19 49.86" style="fill:#41bab6;"></polygon><polygon points="204.63 49.86 197.42 37.36 197.42 36.4 205.19 49.86 204.63 49.86" style="fill:#42bbb6;"></polygon><polygon points="204.07 49.86 197.42 38.33 197.42 37.36 204.63 49.86 204.07 49.86" style="fill:#43bcb7;"></polygon><polygon points="203.51 49.86 197.42 39.3 197.42 38.33 204.07 49.86 203.51 49.86" style="fill:#44bdb7;"></polygon><polygon points="202.96 49.86 197.42 40.27 197.42 39.3 203.51 49.86 202.96 49.86" style="fill:#45beb8;"></polygon><polygon points="202.4 49.86 197.42 41.24 197.42 40.27 202.96 49.86 202.4 49.86" style="fill:#46beb8;"></polygon><polygon points="201.84 49.86 197.42 42.2 197.42 41.24 202.4 49.86 201.84 49.86" style="fill:#47bfb9;"></polygon><polygon points="201.28 49.86 197.42 43.17 197.42 42.2 201.84 49.86 201.28 49.86" style="fill:#48c0b9;"></polygon><polygon points="197.42 43.17 201.28 49.86 197.42 49.86 197.42 43.17" style="fill:#48c0b9;"></polygon></g><path d="M211.97,33.25c-5.85-1.17-12.26-3.34-12.26-11.49s7.08-13.27,15.95-13.27c7.02,0,12.54,2.73,15.72,6.19l-5.91,7.36c-2.62-2.9-6.13-4.57-10.09-4.57-2.95,0-4.96,1.12-4.96,3.18,0,2.29,2.45,2.67,7.3,3.68l-5.74,8.92Z" style="fill:#008597;"></path><path d="M70.26,9.16l14.44,40.03h-11.09l-2.57-7.25L59.62,9.16h10.65Zm-2.29,24.03" style="fill:#008597;"></path><path d="M194.21,9.16v9.26h-18.46v5.97h15.28v9.03h-15.28v6.52h18.46v9.26h-29.16V9.16h29.16Z" style="fill:#008597;"></path></g><g style="clip-path:url(#clippath-3);"><rect x="45.84" y="33.19" width="6.67" height="8.75" style="fill:#48c0b9;"></rect><rect x="52.5" y="33.19" width=".32" height="8.75" style="fill:#48c0b9;"></rect><rect x="52.82" y="33.19" width=".32" height="8.75" style="fill:#47bfb9;"></rect><rect x="53.13" y="33.19" width=".32" height="8.75" style="fill:#46beb8;"></rect><rect x="53.45" y="33.19" width=".32" height="8.75" style="fill:#45beb8;"></rect><rect x="53.77" y="33.19" width=".32" height="8.75" style="fill:#44bdb7;"></rect><rect x="54.08" y="33.19" width=".32" height="8.75" style="fill:#43bcb7;"></rect><rect x="54.4" y="33.19" width=".32" height="8.75" style="fill:#42bbb6;"></rect><rect x="54.71" y="33.19" width=".32" height="8.75" style="fill:#41bab6;"></rect><rect x="55.03" y="33.19" width=".32" height="8.75" style="fill:#40b9b5;"></rect><rect x="55.35" y="33.19" width=".32" height="8.75" style="fill:#3fb9b5;"></rect><rect x="55.66" y="33.19" width=".32" height="8.75" style="fill:#3eb8b4;"></rect><rect x="55.98" y="33.19" width=".32" height="8.75" style="fill:#3db7b4;"></rect><rect x="56.29" y="33.19" width=".32" height="8.75" style="fill:#3cb6b3;"></rect><rect x="56.61" y="33.19" width=".32" height="8.75" style="fill:#3bb5b3;"></rect><rect x="56.93" y="33.19" width=".32" height="8.75" style="fill:#3ab4b2;"></rect><rect x="57.24" y="33.19" width=".32" height="8.75" style="fill:#39b4b2;"></rect><rect x="57.56" y="33.19" width=".32" height="8.75" style="fill:#38b3b1;"></rect><rect x="57.88" y="33.19" width=".32" height="8.75" style="fill:#37b2b1;"></rect><rect x="58.19" y="33.19" width=".32" height="8.75" style="fill:#36b1b0;"></rect><rect x="58.51" y="33.19" width=".32" height="8.75" style="fill:#35b0b0;"></rect><rect x="58.82" y="33.19" width=".32" height="8.75" style="fill:#34afaf;"></rect><rect x="59.14" y="33.19" width=".32" height="8.75" style="fill:#33afaf;"></rect><rect x="59.46" y="33.19" width=".32" height="8.75" style="fill:#32aeae;"></rect><rect x="59.77" y="33.19" width=".32" height="8.75" style="fill:#31adae;"></rect><rect x="60.09" y="33.19" width=".32" height="8.75" style="fill:#30acae;"></rect><rect x="60.4" y="33.19" width=".32" height="8.75" style="fill:#2fabad;"></rect><rect x="60.72" y="33.19" width=".32" height="8.75" style="fill:#2eaaad;"></rect><rect x="61.04" y="33.19" width=".32" height="8.75" style="fill:#2daaac;"></rect><rect x="61.35" y="33.19" width=".32" height="8.75" style="fill:#2ca9ac;"></rect><rect x="61.67" y="33.19" width=".32" height="8.75" style="fill:#2ba8ab;"></rect><rect x="61.98" y="33.19" width=".32" height="8.75" style="fill:#2aa7ab;"></rect><rect x="62.3" y="33.19" width=".32" height="8.75" style="fill:#29a6aa;"></rect><rect x="62.62" y="33.19" width=".32" height="8.75" style="fill:#28a5aa;"></rect><rect x="62.93" y="33.19" width=".32" height="8.75" style="fill:#27a5a9;"></rect><rect x="63.25" y="33.19" width=".32" height="8.75" style="fill:#26a4a9;"></rect><rect x="63.56" y="33.19" width=".32" height="8.75" style="fill:#25a3a8;"></rect><rect x="63.88" y="33.19" width=".32" height="8.75" style="fill:#23a2a8;"></rect><rect x="64.2" y="33.19" width=".32" height="8.75" style="fill:#22a1a7;"></rect><rect x="64.51" y="33.19" width=".32" height="8.75" style="fill:#21a0a7;"></rect><rect x="64.83" y="33.19" width=".32" height="8.75" style="fill:#20a0a6;"></rect><rect x="65.14" y="33.19" width=".32" height="8.75" style="fill:#1f9fa6;"></rect><rect x="65.46" y="33.19" width=".32" height="8.75" style="fill:#1e9ea5;"></rect><rect x="65.78" y="33.19" width=".32" height="8.75" style="fill:#1d9da5;"></rect><rect x="66.09" y="33.19" width=".32" height="8.75" style="fill:#1c9ca4;"></rect><rect x="66.41" y="33.19" width=".32" height="8.75" style="fill:#1b9ba4;"></rect><rect x="66.73" y="33.19" width=".32" height="8.75" style="fill:#1a9ba3;"></rect><rect x="67.04" y="33.19" width=".32" height="8.75" style="fill:#199aa3;"></rect><rect x="67.36" y="33.19" width=".32" height="8.75" style="fill:#1899a2;"></rect><rect x="67.67" y="33.19" width=".32" height="8.75" style="fill:#1798a2;"></rect><rect x="67.99" y="33.19" width=".32" height="8.75" style="fill:#1697a2;"></rect><rect x="68.31" y="33.19" width=".32" height="8.75" style="fill:#1596a1;"></rect><rect x="68.62" y="33.19" width=".32" height="8.75" style="fill:#1496a1;"></rect><rect x="68.94" y="33.19" width=".32" height="8.75" style="fill:#1395a0;"></rect><rect x="69.25" y="33.19" width=".32" height="8.75" style="fill:#1294a0;"></rect><rect x="69.57" y="33.19" width=".32" height="8.75" style="fill:#11939f;"></rect><rect x="69.89" y="33.19" width=".32" height="8.75" style="fill:#10929f;"></rect><rect x="70.2" y="33.19" width=".32" height="8.75" style="fill:#0f919e;"></rect><rect x="70.52" y="33.19" width=".32" height="8.75" style="fill:#0e919e;"></rect><rect x="70.83" y="33.19" width=".32" height="8.75" style="fill:#0d909d;"></rect><rect x="71.15" y="33.19" width=".32" height="8.75" style="fill:#0c8f9d;"></rect><rect x="71.47" y="33.19" width=".32" height="8.75" style="fill:#0b8e9c;"></rect><rect x="71.78" y="33.19" width=".32" height="8.75" style="fill:#0a8d9c;"></rect><rect x="72.1" y="33.19" width=".32" height="8.75" style="fill:#098c9b;"></rect><rect x="72.41" y="33.19" width=".32" height="8.75" style="fill:#088c9b;"></rect><rect x="72.73" y="33.19" width=".32" height="8.75" style="fill:#078b9a;"></rect><rect x="73.05" y="33.19" width=".32" height="8.75" style="fill:#068a9a;"></rect><rect x="73.36" y="33.19" width=".32" height="8.75" style="fill:#058999;"></rect><rect x="73.68" y="33.19" width=".32" height="8.75" style="fill:#048899;"></rect><rect x="73.99" y="33.19" width=".32" height="8.75" style="fill:#038798;"></rect><rect x="74.31" y="33.19" width=".32" height="8.75" style="fill:#028798;"></rect><rect x="74.63" y="33.19" width=".32" height="8.75" style="fill:#018697;"></rect><rect x="74.94" y="33.19" width=".32" height="8.75" style="fill:#008597;"></rect><rect x="75.26" y="33.19" width="6.83" height="8.75" style="fill:#008597;"></rect></g><g style="clip-path:url(#clippath-4);"><rect x="59.61" y="21.26" width=".06" height="11.93" style="fill:#1f9fa6;"></rect><rect x="59.68" y="21.26" width=".27" height="11.93" style="fill:#1e9ea5;"></rect><rect x="59.95" y="21.26" width=".27" height="11.93" style="fill:#1d9da5;"></rect><rect x="60.22" y="21.26" width=".27" height="11.93" style="fill:#1c9ca4;"></rect><rect x="60.49" y="21.26" width=".27" height="11.93" style="fill:#1b9ba4;"></rect><rect x="60.75" y="21.26" width=".27" height="11.93" style="fill:#1a9ba3;"></rect><rect x="61.02" y="21.26" width=".27" height="11.93" style="fill:#199aa3;"></rect><rect x="61.29" y="21.26" width=".27" height="11.93" style="fill:#1899a2;"></rect><rect x="61.56" y="21.26" width=".27" height="11.93" style="fill:#1798a2;"></rect><rect x="61.83" y="21.26" width=".27" height="11.93" style="fill:#1697a2;"></rect><rect x="62.1" y="21.26" width=".27" height="11.93" style="fill:#1596a1;"></rect><rect x="62.37" y="21.26" width=".27" height="11.93" style="fill:#1496a1;"></rect><rect x="62.64" y="21.26" width=".27" height="11.93" style="fill:#1395a0;"></rect><rect x="62.91" y="21.26" width=".27" height="11.93" style="fill:#1294a0;"></rect><rect x="63.18" y="21.26" width=".27" height="11.93" style="fill:#11939f;"></rect><rect x="63.45" y="21.26" width=".27" height="11.93" style="fill:#10929f;"></rect><rect x="63.72" y="21.26" width=".07" height="11.93" style="fill:#0f919e;"></rect><rect x="43.22" y="9.16" width="5.41" height="40.03" style="fill:#48c0b9;"></rect><rect x="48.63" y="9.16" width=".27" height="40.03" style="fill:#48c0b9;"></rect><rect x="48.9" y="9.16" width=".27" height="40.03" style="fill:#47bfb9;"></rect><rect x="49.16" y="9.16" width=".27" height="40.03" style="fill:#46beb8;"></rect><rect x="49.43" y="9.16" width=".27" height="40.03" style="fill:#45beb8;"></rect><rect x="49.7" y="9.16" width=".27" height="40.03" style="fill:#44bdb7;"></rect><rect x="49.97" y="9.16" width=".27" height="40.03" style="fill:#43bcb7;"></rect><rect x="50.24" y="9.16" width=".27" height="40.03" style="fill:#42bbb6;"></rect><rect x="50.51" y="9.16" width=".27" height="40.03" style="fill:#41bab6;"></rect><rect x="50.78" y="9.16" width=".27" height="40.03" style="fill:#40b9b5;"></rect><rect x="51.05" y="9.16" width=".27" height="40.03" style="fill:#3fb9b5;"></rect><rect x="51.32" y="9.16" width=".27" height="40.03" style="fill:#3eb8b4;"></rect><rect x="51.59" y="9.16" width=".27" height="40.03" style="fill:#3db7b4;"></rect><rect x="51.86" y="9.16" width=".27" height="40.03" style="fill:#3cb6b3;"></rect><rect x="52.13" y="9.16" width=".27" height="40.03" style="fill:#3bb5b3;"></rect><rect x="52.4" y="9.16" width=".27" height="40.03" style="fill:#3ab4b2;"></rect><rect x="52.67" y="9.16" width=".27" height="40.03" style="fill:#39b4b2;"></rect><rect x="52.94" y="9.16" width=".27" height="40.03" style="fill:#38b3b1;"></rect><rect x="53.21" y="9.16" width=".27" height="40.03" style="fill:#37b2b1;"></rect><rect x="53.48" y="9.16" width=".27" height="40.03" style="fill:#36b1b0;"></rect><rect x="53.75" y="9.16" width=".27" height="40.03" style="fill:#35b0b0;"></rect><rect x="54.02" y="9.16" width=".27" height="40.03" style="fill:#34afaf;"></rect><rect x="54.29" y="9.16" width=".27" height="40.03" style="fill:#33afaf;"></rect><rect x="54.56" y="9.16" width=".27" height="40.03" style="fill:#32aeae;"></rect><rect x="54.83" y="9.16" width=".27" height="40.03" style="fill:#31adae;"></rect><rect x="55.09" y="9.16" width=".27" height="40.03" style="fill:#30acae;"></rect><rect x="55.36" y="9.16" width=".27" height="40.03" style="fill:#2fabad;"></rect><rect x="55.63" y="9.16" width=".27" height="40.03" style="fill:#2eaaad;"></rect><rect x="55.9" y="9.16" width=".27" height="40.03" style="fill:#2daaac;"></rect><rect x="56.17" y="9.16" width=".27" height="40.03" style="fill:#2ca9ac;"></rect><rect x="56.44" y="9.16" width=".27" height="40.03" style="fill:#2ba8ab;"></rect><rect x="56.71" y="9.16" width=".27" height="40.03" style="fill:#2aa7ab;"></rect><rect x="56.98" y="9.16" width=".27" height="40.03" style="fill:#29a6aa;"></rect><rect x="57.25" y="9.16" width=".27" height="40.03" style="fill:#28a5aa;"></rect><rect x="57.52" y="9.16" width=".27" height="40.03" style="fill:#27a5a9;"></rect><rect x="57.79" y="9.16" width=".27" height="40.03" style="fill:#26a4a9;"></rect><rect x="58.06" y="9.16" width=".27" height="40.03" style="fill:#25a3a8;"></rect><rect x="58.33" y="9.16" width=".27" height="40.03" style="fill:#23a2a8;"></rect><rect x="58.6" y="9.16" width=".27" height="40.03" style="fill:#22a1a7;"></rect><rect x="58.87" y="9.16" width=".27" height="40.03" style="fill:#21a0a7;"></rect><rect x="59.14" y="9.16" width=".27" height="40.03" style="fill:#20a0a6;"></rect><rect x="59.41" y="9.16" width=".27" height="40.03" style="fill:#1f9fa6;"></rect><rect x="59.68" y="9.16" width=".27" height="40.03" style="fill:#1e9ea5;"></rect><rect x="59.95" y="9.16" width=".27" height="40.03" style="fill:#1d9da5;"></rect><rect x="60.22" y="9.16" width=".27" height="40.03" style="fill:#1c9ca4;"></rect><rect x="60.49" y="9.16" width=".27" height="40.03" style="fill:#1b9ba4;"></rect><rect x="60.75" y="9.16" width=".27" height="40.03" style="fill:#1a9ba3;"></rect><rect x="61.02" y="9.16" width=".27" height="40.03" style="fill:#199aa3;"></rect><rect x="61.29" y="9.16" width=".27" height="40.03" style="fill:#1899a2;"></rect><rect x="61.56" y="9.16" width=".27" height="40.03" style="fill:#1798a2;"></rect><rect x="61.83" y="9.16" width=".27" height="40.03" style="fill:#1697a2;"></rect><rect x="62.1" y="9.16" width=".27" height="40.03" style="fill:#1596a1;"></rect><rect x="62.37" y="9.16" width=".27" height="40.03" style="fill:#1496a1;"></rect><rect x="62.64" y="9.16" width=".27" height="40.03" style="fill:#1395a0;"></rect><rect x="62.91" y="9.16" width=".27" height="40.03" style="fill:#1294a0;"></rect><rect x="63.18" y="9.16" width=".27" height="40.03" style="fill:#11939f;"></rect><rect x="63.45" y="9.16" width=".27" height="40.03" style="fill:#10929f;"></rect><rect x="63.72" y="9.16" width=".27" height="40.03" style="fill:#0f919e;"></rect><rect x="63.99" y="9.16" width=".27" height="40.03" style="fill:#0e919e;"></rect><rect x="64.26" y="9.16" width=".27" height="40.03" style="fill:#0d909d;"></rect><rect x="64.53" y="9.16" width=".27" height="40.03" style="fill:#0c8f9d;"></rect><rect x="64.8" y="9.16" width=".27" height="40.03" style="fill:#0b8e9c;"></rect><rect x="65.07" y="9.16" width=".27" height="40.03" style="fill:#0a8d9c;"></rect><rect x="65.34" y="9.16" width=".27" height="40.03" style="fill:#098c9b;"></rect><rect x="65.61" y="9.16" width=".27" height="40.03" style="fill:#088c9b;"></rect><rect x="65.88" y="9.16" width=".27" height="40.03" style="fill:#078b9a;"></rect><rect x="66.15" y="9.16" width=".27" height="40.03" style="fill:#068a9a;"></rect><rect x="66.41" y="9.16" width=".27" height="40.03" style="fill:#058999;"></rect><rect x="66.68" y="9.16" width=".27" height="40.03" style="fill:#048899;"></rect><rect x="66.95" y="9.16" width=".27" height="40.03" style="fill:#038798;"></rect><rect x="67.22" y="9.16" width=".27" height="40.03" style="fill:#028798;"></rect><rect x="67.49" y="9.16" width=".27" height="40.03" style="fill:#018697;"></rect><rect x="67.76" y="9.16" width=".27" height="40.03" style="fill:#008597;"></rect></g><g style="clip-path:url(#clippath-5);"><rect x="165.05" y="39.84" width=".79" height="9.26" style="fill:#008597;"></rect><rect x="165.84" y="39.84" width=".39" height="9.26" style="fill:#008597;"></rect><rect x="166.23" y="39.84" width=".39" height="9.26" style="fill:#018697;"></rect><rect x="166.63" y="39.84" width=".39" height="9.26" style="fill:#028798;"></rect><rect x="167.02" y="39.84" width=".39" height="9.26" style="fill:#038798;"></rect><rect x="167.41" y="39.84" width=".39" height="9.26" style="fill:#048899;"></rect><rect x="167.81" y="39.84" width=".39" height="9.26" style="fill:#058999;"></rect><rect x="168.2" y="39.84" width=".39" height="9.26" style="fill:#068a9a;"></rect><rect x="168.6" y="39.84" width=".39" height="9.26" style="fill:#078b9a;"></rect><rect x="168.99" y="39.84" width=".39" height="9.26" style="fill:#088c9b;"></rect><rect x="169.38" y="39.84" width=".39" height="9.26" style="fill:#098c9b;"></rect><rect x="169.78" y="39.84" width=".39" height="9.26" style="fill:#0a8d9c;"></rect><rect x="170.17" y="39.84" width=".39" height="9.26" style="fill:#0b8e9c;"></rect><rect x="170.57" y="39.84" width=".39" height="9.26" style="fill:#0c8f9d;"></rect><rect x="170.96" y="39.84" width=".39" height="9.26" style="fill:#0d909d;"></rect><rect x="171.35" y="39.84" width=".39" height="9.26" style="fill:#0e919e;"></rect><rect x="171.75" y="39.84" width=".39" height="9.26" style="fill:#0f919e;"></rect><rect x="172.14" y="39.84" width=".39" height="9.26" style="fill:#10929f;"></rect><rect x="172.54" y="39.84" width=".39" height="9.26" style="fill:#11939f;"></rect><rect x="172.93" y="39.84" width=".39" height="9.26" style="fill:#1294a0;"></rect><rect x="173.33" y="39.84" width=".39" height="9.26" style="fill:#1395a0;"></rect><rect x="173.72" y="39.84" width=".39" height="9.26" style="fill:#1496a1;"></rect><rect x="174.11" y="39.84" width=".39" height="9.26" style="fill:#1596a1;"></rect><rect x="174.51" y="39.84" width=".39" height="9.26" style="fill:#1697a2;"></rect><rect x="174.9" y="39.84" width=".39" height="9.26" style="fill:#1798a2;"></rect><rect x="175.3" y="39.84" width=".39" height="9.26" style="fill:#1899a2;"></rect><rect x="175.69" y="39.84" width=".39" height="9.26" style="fill:#199aa3;"></rect><rect x="176.08" y="39.84" width=".39" height="9.26" style="fill:#1a9ba3;"></rect><rect x="176.48" y="39.84" width=".39" height="9.26" style="fill:#1b9ba4;"></rect><rect x="176.87" y="39.84" width=".39" height="9.26" style="fill:#1c9ca4;"></rect><rect x="177.27" y="39.84" width=".39" height="9.26" style="fill:#1d9da5;"></rect><rect x="177.66" y="39.84" width=".39" height="9.26" style="fill:#1e9ea5;"></rect><rect x="178.05" y="39.84" width=".39" height="9.26" style="fill:#1f9fa6;"></rect><rect x="178.45" y="39.84" width=".39" height="9.26" style="fill:#20a0a6;"></rect><rect x="178.84" y="39.84" width=".39" height="9.26" style="fill:#21a0a7;"></rect><rect x="179.24" y="39.84" width=".39" height="9.26" style="fill:#22a1a7;"></rect><rect x="179.63" y="39.84" width=".39" height="9.26" style="fill:#23a2a8;"></rect><rect x="180.03" y="39.84" width=".39" height="9.26" style="fill:#25a3a8;"></rect><rect x="180.42" y="39.84" width=".39" height="9.26" style="fill:#26a4a9;"></rect><rect x="180.81" y="39.84" width=".39" height="9.26" style="fill:#27a5a9;"></rect><rect x="181.21" y="39.84" width=".39" height="9.26" style="fill:#28a5aa;"></rect><rect x="181.6" y="39.84" width=".39" height="9.26" style="fill:#29a6aa;"></rect><rect x="182" y="39.84" width=".39" height="9.26" style="fill:#2aa7ab;"></rect><rect x="182.39" y="39.84" width=".39" height="9.26" style="fill:#2ba8ab;"></rect><rect x="182.78" y="39.84" width=".39" height="9.26" style="fill:#2ca9ac;"></rect><rect x="183.18" y="39.84" width=".39" height="9.26" style="fill:#2daaac;"></rect><rect x="183.57" y="39.84" width=".39" height="9.26" style="fill:#2eaaad;"></rect><rect x="183.97" y="39.84" width=".39" height="9.26" style="fill:#2fabad;"></rect><rect x="184.36" y="39.84" width=".39" height="9.26" style="fill:#30acae;"></rect><rect x="184.75" y="39.84" width=".39" height="9.26" style="fill:#31adae;"></rect><rect x="185.15" y="39.84" width=".39" height="9.26" style="fill:#32aeae;"></rect><rect x="185.54" y="39.84" width=".39" height="9.26" style="fill:#33afaf;"></rect><rect x="185.94" y="39.84" width=".39" height="9.26" style="fill:#34afaf;"></rect><rect x="186.33" y="39.84" width=".39" height="9.26" style="fill:#35b0b0;"></rect><rect x="186.73" y="39.84" width=".39" height="9.26" style="fill:#36b1b0;"></rect><rect x="187.12" y="39.84" width=".39" height="9.26" style="fill:#37b2b1;"></rect><rect x="187.51" y="39.84" width=".39" height="9.26" style="fill:#38b3b1;"></rect><rect x="187.91" y="39.84" width=".39" height="9.26" style="fill:#39b4b2;"></rect><rect x="188.3" y="39.84" width=".39" height="9.26" style="fill:#3ab4b2;"></rect><rect x="188.7" y="39.84" width=".39" height="9.26" style="fill:#3bb5b3;"></rect><rect x="189.09" y="39.84" width=".39" height="9.26" style="fill:#3cb6b3;"></rect><rect x="189.48" y="39.84" width=".39" height="9.26" style="fill:#3db7b4;"></rect><rect x="189.88" y="39.84" width=".39" height="9.26" style="fill:#3eb8b4;"></rect><rect x="190.27" y="39.84" width=".39" height="9.26" style="fill:#3fb9b5;"></rect><rect x="190.67" y="39.84" width=".39" height="9.26" style="fill:#40b9b5;"></rect><rect x="191.06" y="39.84" width=".39" height="9.26" style="fill:#41bab6;"></rect><rect x="191.46" y="39.84" width=".39" height="9.26" style="fill:#42bbb6;"></rect><rect x="191.85" y="39.84" width=".39" height="9.26" style="fill:#43bcb7;"></rect><rect x="192.24" y="39.84" width=".39" height="9.26" style="fill:#44bdb7;"></rect><rect x="192.64" y="39.84" width=".39" height="9.26" style="fill:#45beb8;"></rect><rect x="193.03" y="39.84" width=".39" height="9.26" style="fill:#46beb8;"></rect><rect x="193.43" y="39.84" width=".39" height="9.26" style="fill:#47bfb9;"></rect><rect x="193.82" y="39.84" width=".39" height="9.26" style="fill:#48c0b9;"></rect></g><polygon points="175.75 23.88 165.05 23.88 165.05 9.24 175.75 9.16 175.75 23.88" style="fill:#008597;"></polygon><g style="clip-path:url(#clippath-6);"><rect x="122.76" y="8.49" width="1.15" height="23.37" style="fill:#008597;"></rect><rect x="123.91" y="8.49" width=".51" height="23.37" style="fill:#008597;"></rect><rect x="124.42" y="8.49" width=".51" height="23.37" style="fill:#018697;"></rect><rect x="124.93" y="8.49" width=".51" height="23.37" style="fill:#028798;"></rect><rect x="125.43" y="8.49" width=".51" height="23.37" style="fill:#038798;"></rect><rect x="125.94" y="8.49" width=".51" height="23.37" style="fill:#048899;"></rect><rect x="126.44" y="8.49" width=".51" height="23.37" style="fill:#058999;"></rect><rect x="126.95" y="8.49" width=".51" height="23.37" style="fill:#068a9a;"></rect><rect x="127.46" y="8.49" width=".51" height="23.37" style="fill:#078b9a;"></rect><rect x="127.96" y="8.49" width=".51" height="23.37" style="fill:#088c9b;"></rect><rect x="128.47" y="8.49" width=".51" height="23.37" style="fill:#098c9b;"></rect><rect x="128.97" y="8.49" width=".51" height="23.37" style="fill:#0a8d9c;"></rect><rect x="129.48" y="8.49" width=".51" height="23.37" style="fill:#0b8e9c;"></rect><rect x="129.99" y="8.49" width=".51" height="23.37" style="fill:#0c8f9d;"></rect><rect x="130.49" y="8.49" width=".51" height="23.37" style="fill:#0d909d;"></rect><rect x="131" y="8.49" width=".51" height="23.37" style="fill:#0e919e;"></rect><rect x="131.5" y="8.49" width=".51" height="23.37" style="fill:#0f919e;"></rect><rect x="132.01" y="8.49" width=".51" height="23.37" style="fill:#10929f;"></rect><rect x="132.52" y="8.49" width=".51" height="23.37" style="fill:#11939f;"></rect><rect x="133.02" y="8.49" width=".51" height="23.37" style="fill:#1294a0;"></rect><rect x="133.53" y="8.49" width=".51" height="23.37" style="fill:#1395a0;"></rect><rect x="134.03" y="8.49" width=".51" height="23.37" style="fill:#1496a1;"></rect><rect x="134.54" y="8.49" width=".51" height="23.37" style="fill:#1596a1;"></rect><rect x="135.05" y="8.49" width=".51" height="23.37" style="fill:#1697a2;"></rect><rect x="135.55" y="8.49" width=".51" height="23.37" style="fill:#1798a2;"></rect><rect x="136.06" y="8.49" width=".51" height="23.37" style="fill:#1899a2;"></rect><rect x="136.57" y="8.49" width=".51" height="23.37" style="fill:#199aa3;"></rect><rect x="137.07" y="8.49" width=".51" height="23.37" style="fill:#1a9ba3;"></rect><rect x="137.58" y="8.49" width=".51" height="23.37" style="fill:#1b9ba4;"></rect><rect x="138.08" y="8.49" width=".51" height="23.37" style="fill:#1c9ca4;"></rect><rect x="138.59" y="8.49" width=".51" height="23.37" style="fill:#1d9da5;"></rect><rect x="139.1" y="8.49" width=".51" height="23.37" style="fill:#1e9ea5;"></rect><rect x="139.6" y="8.49" width=".51" height="23.37" style="fill:#1f9fa6;"></rect><rect x="140.11" y="8.49" width=".51" height="23.37" style="fill:#20a0a6;"></rect><rect x="140.61" y="8.49" width=".51" height="23.37" style="fill:#21a0a7;"></rect><rect x="141.12" y="8.49" width=".51" height="23.37" style="fill:#22a1a7;"></rect><rect x="141.63" y="8.49" width=".51" height="23.37" style="fill:#23a2a8;"></rect><rect x="142.13" y="8.49" width=".51" height="23.37" style="fill:#25a3a8;"></rect><rect x="142.64" y="8.49" width=".51" height="23.37" style="fill:#26a4a9;"></rect><rect x="143.14" y="8.49" width=".51" height="23.37" style="fill:#27a5a9;"></rect><rect x="143.65" y="8.49" width=".51" height="23.37" style="fill:#28a5aa;"></rect><rect x="144.16" y="8.49" width=".51" height="23.37" style="fill:#29a6aa;"></rect><rect x="144.66" y="8.49" width=".51" height="23.37" style="fill:#2aa7ab;"></rect><rect x="145.17" y="8.49" width=".51" height="23.37" style="fill:#2ba8ab;"></rect><rect x="145.67" y="8.49" width=".51" height="23.37" style="fill:#2ca9ac;"></rect><rect x="146.18" y="8.49" width=".51" height="23.37" style="fill:#2daaac;"></rect><rect x="146.69" y="8.49" width=".51" height="23.37" style="fill:#2eaaad;"></rect><rect x="147.19" y="8.49" width=".51" height="23.37" style="fill:#2fabad;"></rect><rect x="147.7" y="8.49" width=".51" height="23.37" style="fill:#30acae;"></rect><rect x="148.21" y="8.49" width=".51" height="23.37" style="fill:#31adae;"></rect><rect x="148.71" y="8.49" width=".51" height="23.37" style="fill:#32aeae;"></rect><rect x="149.22" y="8.49" width=".51" height="23.37" style="fill:#33afaf;"></rect><rect x="149.72" y="8.49" width=".51" height="23.37" style="fill:#34afaf;"></rect><rect x="150.23" y="8.49" width=".51" height="23.37" style="fill:#35b0b0;"></rect><rect x="150.74" y="8.49" width=".51" height="23.37" style="fill:#36b1b0;"></rect><rect x="151.24" y="8.49" width=".51" height="23.37" style="fill:#37b2b1;"></rect><rect x="151.75" y="8.49" width=".51" height="23.37" style="fill:#38b3b1;"></rect><rect x="152.25" y="8.49" width=".51" height="23.37" style="fill:#39b4b2;"></rect><rect x="152.76" y="8.49" width=".51" height="23.37" style="fill:#3ab4b2;"></rect><rect x="153.27" y="8.49" width=".51" height="23.37" style="fill:#3bb5b3;"></rect><rect x="153.77" y="8.49" width=".51" height="23.37" style="fill:#3cb6b3;"></rect><rect x="154.28" y="8.49" width=".51" height="23.37" style="fill:#3db7b4;"></rect><rect x="154.78" y="8.49" width=".51" height="23.37" style="fill:#3eb8b4;"></rect><rect x="155.29" y="8.49" width=".51" height="23.37" style="fill:#3fb9b5;"></rect><rect x="155.8" y="8.49" width=".51" height="23.37" style="fill:#40b9b5;"></rect><rect x="156.3" y="8.49" width=".51" height="23.37" style="fill:#41bab6;"></rect><rect x="156.81" y="8.49" width=".51" height="23.37" style="fill:#42bbb6;"></rect><rect x="157.31" y="8.49" width=".51" height="23.37" style="fill:#43bcb7;"></rect><rect x="157.82" y="8.49" width=".51" height="23.37" style="fill:#44bdb7;"></rect><rect x="158.33" y="8.49" width=".51" height="23.37" style="fill:#45beb8;"></rect><rect x="158.83" y="8.49" width=".51" height="23.37" style="fill:#46beb8;"></rect><rect x="159.34" y="8.49" width=".51" height="23.37" style="fill:#47bfb9;"></rect><rect x="159.85" y="8.49" width=".51" height="23.37" style="fill:#48c0b9;"></rect></g><g style="clip-path:url(#clippath-7);"><rect x="268.21" y="8.49" width=".92" height="41.37" style="fill:#038596;"></rect><rect x="267.94" y="8.49" width=".27" height="41.37" style="fill:#038596;"></rect><rect x="267.66" y="8.49" width=".27" height="41.37" style="fill:#048697;"></rect><rect x="267.39" y="8.49" width=".27" height="41.37" style="fill:#058797;"></rect><rect x="267.12" y="8.49" width=".27" height="41.37" style="fill:#068798;"></rect><rect x="266.84" y="8.49" width=".27" height="41.37" style="fill:#078899;"></rect><rect x="266.57" y="8.49" width=".27" height="41.37" style="fill:#088999;"></rect><rect x="266.29" y="8.49" width=".27" height="41.37" style="fill:#098a9a;"></rect><rect x="266.02" y="8.49" width=".27" height="41.37" style="fill:#0a8b9b;"></rect><rect x="265.75" y="8.49" width=".27" height="41.37" style="fill:#0b8c9b;"></rect><rect x="265.47" y="8.49" width=".27" height="41.37" style="fill:#0c8c9c;"></rect><rect x="265.2" y="8.49" width=".27" height="41.37" style="fill:#0d8d9d;"></rect><rect x="264.93" y="8.49" width=".27" height="41.37" style="fill:#0e8e9d;"></rect><rect x="264.65" y="8.49" width=".27" height="41.37" style="fill:#0f8f9e;"></rect><rect x="264.38" y="8.49" width=".27" height="41.37" style="fill:#10909e;"></rect><rect x="264.1" y="8.49" width=".27" height="41.37" style="fill:#11919f;"></rect><rect x="263.83" y="8.49" width=".27" height="41.37" style="fill:#1291a0;"></rect><rect x="263.56" y="8.49" width=".27" height="41.37" style="fill:#1392a0;"></rect><rect x="263.28" y="8.49" width=".27" height="41.37" style="fill:#1493a1;"></rect><rect x="263.01" y="8.49" width=".27" height="41.37" style="fill:#1594a2;"></rect><rect x="262.74" y="8.49" width=".27" height="41.37" style="fill:#1695a2;"></rect><rect x="262.46" y="8.49" width=".27" height="41.37" style="fill:#1796a3;"></rect><rect x="262.19" y="8.49" width=".27" height="41.37" style="fill:#1896a4;"></rect><rect x="261.91" y="8.49" width=".27" height="41.37" style="fill:#1997a4;"></rect><rect x="261.64" y="8.49" width=".27" height="41.37" style="fill:#1a98a5;"></rect><rect x="261.37" y="8.49" width=".27" height="41.37" style="fill:#1b99a6;"></rect><rect x="261.09" y="8.49" width=".27" height="41.37" style="fill:#1c9aa6;"></rect><rect x="260.82" y="8.49" width=".27" height="41.37" style="fill:#1d9aa7;"></rect><rect x="260.55" y="8.49" width=".27" height="41.37" style="fill:#1e9ba8;"></rect><rect x="260.27" y="8.49" width=".27" height="41.37" style="fill:#1f9ca8;"></rect><rect x="260" y="8.49" width=".27" height="41.37" style="fill:#209da9;"></rect><rect x="259.72" y="8.49" width=".27" height="41.37" style="fill:#219eaa;"></rect><rect x="259.45" y="8.49" width=".27" height="41.37" style="fill:#229faa;"></rect><rect x="259.18" y="8.49" width=".27" height="41.37" style="fill:#239fab;"></rect><rect x="258.9" y="8.49" width=".27" height="41.37" style="fill:#24a0ac;"></rect><rect x="258.63" y="8.49" width=".27" height="41.37" style="fill:#25a1ac;"></rect><rect x="258.36" y="8.49" width=".27" height="41.37" style="fill:#26a2ad;"></rect><rect x="258.08" y="8.49" width=".27" height="41.37" style="fill:#27a3ae;"></rect><rect x="257.81" y="8.49" width=".27" height="41.37" style="fill:#28a4ae;"></rect><rect x="257.53" y="8.49" width=".27" height="41.37" style="fill:#29a4af;"></rect><rect x="257.26" y="8.49" width=".27" height="41.37" style="fill:#2aa5af;"></rect><rect x="256.99" y="8.49" width=".27" height="41.37" style="fill:#2ba6b0;"></rect><rect x="256.71" y="8.49" width=".27" height="41.37" style="fill:#2ca7b1;"></rect><rect x="256.44" y="8.49" width=".27" height="41.37" style="fill:#2da8b1;"></rect><rect x="256.17" y="8.49" width=".27" height="41.37" style="fill:#2ea9b2;"></rect><rect x="255.89" y="8.49" width=".27" height="41.37" style="fill:#2fa9b3;"></rect><rect x="255.62" y="8.49" width=".27" height="41.37" style="fill:#30aab3;"></rect><rect x="255.34" y="8.49" width=".27" height="41.37" style="fill:#31abb4;"></rect><rect x="255.07" y="8.49" width=".27" height="41.37" style="fill:#32acb5;"></rect><rect x="254.8" y="8.49" width=".27" height="41.37" style="fill:#33adb5;"></rect><rect x="254.52" y="8.49" width=".27" height="41.37" style="fill:#35aeb6;"></rect><rect x="254.25" y="8.49" width=".27" height="41.37" style="fill:#36aeb7;"></rect><rect x="253.97" y="8.49" width=".27" height="41.37" style="fill:#37afb7;"></rect><rect x="253.7" y="8.49" width=".27" height="41.37" style="fill:#38b0b8;"></rect><rect x="253.43" y="8.49" width=".27" height="41.37" style="fill:#39b1b9;"></rect><rect x="253.15" y="8.49" width=".27" height="41.37" style="fill:#3ab2b9;"></rect><rect x="252.88" y="8.49" width=".27" height="41.37" style="fill:#3bb2ba;"></rect><rect x="252.61" y="8.49" width=".27" height="41.37" style="fill:#3cb3bb;"></rect><rect x="252.33" y="8.49" width=".27" height="41.37" style="fill:#3db4bb;"></rect><rect x="252.06" y="8.49" width=".27" height="41.37" style="fill:#3eb5bc;"></rect><rect x="251.78" y="8.49" width=".27" height="41.37" style="fill:#3fb6bd;"></rect><rect x="251.51" y="8.49" width=".27" height="41.37" style="fill:#40b7bd;"></rect><rect x="251.24" y="8.49" width=".27" height="41.37" style="fill:#41b7be;"></rect><rect x="250.96" y="8.49" width=".27" height="41.37" style="fill:#42b8be;"></rect><rect x="250.69" y="8.49" width=".27" height="41.37" style="fill:#43b9bf;"></rect><rect x="250.42" y="8.49" width=".27" height="41.37" style="fill:#44bac0;"></rect><rect x="250.14" y="8.49" width=".27" height="41.37" style="fill:#45bbc0;"></rect><rect x="249.87" y="8.49" width=".27" height="41.37" style="fill:#46bcc1;"></rect><rect x="249.59" y="8.49" width=".27" height="41.37" style="fill:#47bcc2;"></rect><rect x="249.32" y="8.49" width=".27" height="41.37" style="fill:#48bdc2;"></rect><rect x="249.05" y="8.49" width=".27" height="41.37" style="fill:#49bec3;"></rect><rect x="248.77" y="8.49" width=".27" height="41.37" style="fill:#4abfc4;"></rect><rect x="248.5" y="8.49" width=".27" height="41.37" style="fill:#4bc0c4;"></rect><rect x="248.23" y="8.49" width=".27" height="41.37" style="fill:#4cc1c5;"></rect><rect x="247.95" y="8.49" width=".27" height="41.37" style="fill:#4dc1c6;"></rect><rect x="247.68" y="8.49" width=".27" height="41.37" style="fill:#4ec2c6;"></rect><rect x="247.4" y="8.49" width=".27" height="41.37" style="fill:#4fc3c7;"></rect><rect x="247.13" y="8.49" width=".27" height="41.37" style="fill:#50c4c8;"></rect><rect x="246.86" y="8.49" width=".27" height="41.37" style="fill:#51c5c8;"></rect><rect x="246.58" y="8.49" width=".27" height="41.37" style="fill:#52c5c9;"></rect><rect x="246.31" y="8.49" width=".27" height="41.37" style="fill:#53c6ca;"></rect><rect x="246.04" y="8.49" width=".27" height="41.37" style="fill:#54c7ca;"></rect><rect x="245.76" y="8.49" width=".27" height="41.37" style="fill:#55c8cb;"></rect><rect x="245.49" y="8.49" width=".27" height="41.37" style="fill:#56c9cc;"></rect><rect x="245.21" y="8.49" width=".27" height="41.37" style="fill:#57cacc;"></rect><rect x="244.94" y="8.49" width=".27" height="41.37" style="fill:#58cacd;"></rect><rect x="244.67" y="8.49" width=".27" height="41.37" style="fill:#59cbce;"></rect><rect x="244.39" y="8.49" width=".27" height="41.37" style="fill:#5accce;"></rect><rect x="244.12" y="8.49" width=".27" height="41.37" style="fill:#5bcdcf;"></rect><rect x="243.85" y="8.49" width=".27" height="41.37" style="fill:#5ccecf;"></rect><rect x="243.57" y="8.49" width=".27" height="41.37" style="fill:#5dcfd0;"></rect><rect x="243.3" y="8.49" width=".27" height="41.37" style="fill:#5ecfd1;"></rect><rect x="243.02" y="8.49" width=".27" height="41.37" style="fill:#5fd0d1;"></rect><rect x="242.75" y="8.49" width=".27" height="41.37" style="fill:#60d1d2;"></rect><rect x="242.48" y="8.49" width=".27" height="41.37" style="fill:#61d2d3;"></rect><rect x="242.2" y="8.49" width=".27" height="41.37" style="fill:#62d3d3;"></rect><rect x="241.93" y="8.49" width=".27" height="41.37" style="fill:#63d4d4;"></rect><rect x="241.66" y="8.49" width=".27" height="41.37" style="fill:#64d4d5;"></rect><rect x="241.38" y="8.49" width=".27" height="41.37" style="fill:#65d5d5;"></rect><rect x="241.11" y="8.49" width=".27" height="41.37" style="fill:#66d6d6;"></rect><rect x="234.79" y="8.49" width="6.32" height="41.37" style="fill:#66d6d6;"></rect></g><g style="clip-path:url(#clippath-8);"><polygon points="269.14 32.93 255.03 8.49 269.14 8.49 269.14 32.93" style="fill:#008597;"></polygon><polygon points="269.14 33.9 254.47 8.49 255.03 8.49 269.14 32.93 269.14 33.9" style="fill:#008597;"></polygon><polygon points="269.14 34.87 253.91 8.49 254.47 8.49 269.14 33.9 269.14 34.87" style="fill:#018697;"></polygon><polygon points="269.14 35.83 253.35 8.49 253.91 8.49 269.14 34.87 269.14 35.83" style="fill:#028798;"></polygon><polygon points="269.14 36.8 252.79 8.49 253.35 8.49 269.14 35.83 269.14 36.8" style="fill:#038798;"></polygon><polygon points="269.14 37.77 252.23 8.49 252.79 8.49 269.14 36.8 269.14 37.77" style="fill:#048899;"></polygon><polygon points="269.14 38.74 251.67 8.49 252.23 8.49 269.14 37.77 269.14 38.74" style="fill:#058999;"></polygon><polygon points="269.14 39.71 251.11 8.49 251.67 8.49 269.14 38.74 269.14 39.71" style="fill:#068a9a;"></polygon><polygon points="269.14 40.68 250.55 8.49 251.11 8.49 269.14 39.71 269.14 40.68" style="fill:#078b9a;"></polygon><polygon points="269.14 41.64 250 8.49 250.55 8.49 269.14 40.68 269.14 41.64" style="fill:#088c9b;"></polygon><polygon points="269.14 42.61 249.44 8.49 250 8.49 269.14 41.64 269.14 42.61" style="fill:#098c9b;"></polygon><polygon points="269.14 43.58 248.88 8.49 249.44 8.49 269.14 42.61 269.14 43.58" style="fill:#0a8d9c;"></polygon><polygon points="269.14 44.55 248.32 8.49 248.88 8.49 269.14 43.58 269.14 44.55" style="fill:#0b8e9c;"></polygon><polygon points="269.14 45.52 247.76 8.49 248.32 8.49 269.14 44.55 269.14 45.52" style="fill:#0c8f9d;"></polygon><polygon points="269.14 46.49 247.2 8.49 247.76 8.49 269.14 45.52 269.14 46.49" style="fill:#0d909d;"></polygon><polygon points="269.14 47.46 246.64 8.49 247.2 8.49 269.14 46.49 269.14 47.46" style="fill:#0e919e;"></polygon><polygon points="269.14 47.8 268.86 47.95 246.08 8.49 246.64 8.49 269.14 47.46 269.14 47.8" style="fill:#0f919e;"></polygon><polygon points="268.86 47.95 268.45 48.2 245.52 8.49 246.08 8.49 268.86 47.95" style="fill:#10929f;"></polygon><polygon points="268.45 48.2 268.03 48.44 244.96 8.49 245.52 8.49 268.45 48.2" style="fill:#11939f;"></polygon><polygon points="268.03 48.44 267.61 48.68 244.4 8.49 244.96 8.49 268.03 48.44" style="fill:#1294a0;"></polygon><polygon points="267.61 48.68 267.19 48.92 243.85 8.49 244.4 8.49 267.61 48.68" style="fill:#1395a0;"></polygon><polygon points="267.19 48.92 266.77 49.16 243.29 8.49 243.85 8.49 267.19 48.92" style="fill:#1496a1;"></polygon><polygon points="266.77 49.16 266.35 49.41 242.73 8.49 243.29 8.49 266.77 49.16" style="fill:#1596a1;"></polygon><polygon points="266.35 49.41 265.93 49.65 242.17 8.49 242.73 8.49 266.35 49.41" style="fill:#1697a2;"></polygon><polygon points="265.93 49.65 265.56 49.86 265.49 49.86 241.61 8.49 242.17 8.49 265.93 49.65" style="fill:#1798a2;"></polygon><polygon points="264.93 49.86 241.05 8.49 241.61 8.49 265.49 49.86 264.93 49.86" style="fill:#1899a2;"></polygon><polygon points="264.38 49.86 240.49 8.49 241.05 8.49 264.93 49.86 264.38 49.86" style="fill:#199aa3;"></polygon><polygon points="263.82 49.86 239.99 8.59 240.16 8.49 240.49 8.49 264.38 49.86 263.82 49.86" style="fill:#1a9ba3;"></polygon><polygon points="263.26 49.86 239.57 8.83 239.99 8.59 263.82 49.86 263.26 49.86" style="fill:#1b9ba4;"></polygon><polygon points="262.7 49.86 239.15 9.07 239.57 8.83 263.26 49.86 262.7 49.86" style="fill:#1c9ca4;"></polygon><polygon points="262.14 49.86 238.73 9.32 239.15 9.07 262.7 49.86 262.14 49.86" style="fill:#1d9da5;"></polygon><polygon points="261.58 49.86 238.31 9.56 238.73 9.32 262.14 49.86 261.58 49.86" style="fill:#1e9ea5;"></polygon><polygon points="261.02 49.86 237.89 9.8 238.31 9.56 261.58 49.86 261.02 49.86" style="fill:#1f9fa6;"></polygon><polygon points="260.46 49.86 237.47 10.04 237.89 9.8 261.02 49.86 260.46 49.86" style="fill:#20a0a6;"></polygon><polygon points="259.9 49.86 237.05 10.29 237.47 10.04 260.46 49.86 259.9 49.86" style="fill:#21a0a7;"></polygon><polygon points="259.34 49.86 236.63 10.53 237.05 10.29 259.9 49.86 259.34 49.86" style="fill:#22a1a7;"></polygon><polygon points="258.78 49.86 236.21 10.77 236.63 10.53 259.34 49.86 258.78 49.86" style="fill:#23a2a8;"></polygon><polygon points="258.23 49.86 235.79 11.01 236.21 10.77 258.78 49.86 258.23 49.86" style="fill:#25a3a8;"></polygon><polygon points="257.67 49.86 235.37 11.25 235.79 11.01 258.23 49.86 257.67 49.86" style="fill:#26a4a9;"></polygon><polygon points="257.11 49.86 234.96 11.5 235.37 11.25 257.67 49.86 257.11 49.86" style="fill:#27a5a9;"></polygon><polygon points="256.55 49.86 234.79 12.18 234.79 11.59 234.96 11.5 257.11 49.86 256.55 49.86" style="fill:#28a5aa;"></polygon><polygon points="255.99 49.86 234.79 13.15 234.79 12.18 256.55 49.86 255.99 49.86" style="fill:#29a6aa;"></polygon><polygon points="255.43 49.86 234.79 14.12 234.79 13.15 255.99 49.86 255.43 49.86" style="fill:#2aa7ab;"></polygon><polygon points="254.87 49.86 234.79 15.09 234.79 14.12 255.43 49.86 254.87 49.86" style="fill:#2ba8ab;"></polygon><polygon points="254.31 49.86 234.79 16.06 234.79 15.09 254.87 49.86 254.31 49.86" style="fill:#2ca9ac;"></polygon><polygon points="253.75 49.86 234.79 17.02 234.79 16.06 254.31 49.86 253.75 49.86" style="fill:#2daaac;"></polygon><polygon points="253.19 49.86 234.79 17.99 234.79 17.02 253.75 49.86 253.19 49.86" style="fill:#2eaaad;"></polygon><polygon points="252.63 49.86 234.79 18.96 234.79 17.99 253.19 49.86 252.63 49.86" style="fill:#2fabad;"></polygon><polygon points="252.08 49.86 234.79 19.93 234.79 18.96 252.63 49.86 252.08 49.86" style="fill:#30acae;"></polygon><polygon points="251.52 49.86 234.79 20.9 234.79 19.93 252.08 49.86 251.52 49.86" style="fill:#31adae;"></polygon><polygon points="250.96 49.86 234.79 21.87 234.79 20.9 251.52 49.86 250.96 49.86" style="fill:#32aeae;"></polygon><polygon points="250.4 49.86 234.79 22.83 234.79 21.87 250.96 49.86 250.4 49.86" style="fill:#33afaf;"></polygon><polygon points="249.84 49.86 234.79 23.8 234.79 22.83 250.4 49.86 249.84 49.86" style="fill:#34afaf;"></polygon><polygon points="249.28 49.86 234.79 24.77 234.79 23.8 249.84 49.86 249.28 49.86" style="fill:#35b0b0;"></polygon><polygon points="248.72 49.86 234.79 25.74 234.79 24.77 249.28 49.86 248.72 49.86" style="fill:#36b1b0;"></polygon><polygon points="248.16 49.86 234.79 26.71 234.79 25.74 248.72 49.86 248.16 49.86" style="fill:#37b2b1;"></polygon><polygon points="247.6 49.86 234.79 27.68 234.79 26.71 248.16 49.86 247.6 49.86" style="fill:#38b3b1;"></polygon><polygon points="247.04 49.86 234.79 28.64 234.79 27.68 247.6 49.86 247.04 49.86" style="fill:#39b4b2;"></polygon><polygon points="246.48 49.86 234.79 29.61 234.79 28.64 247.04 49.86 246.48 49.86" style="fill:#3ab4b2;"></polygon><polygon points="245.92 49.86 234.79 30.58 234.79 29.61 246.48 49.86 245.92 49.86" style="fill:#3bb5b3;"></polygon><polygon points="245.37 49.86 234.79 31.55 234.79 30.58 245.92 49.86 245.37 49.86" style="fill:#3cb6b3;"></polygon><polygon points="244.81 49.86 234.79 32.52 234.79 31.55 245.37 49.86 244.81 49.86" style="fill:#3db7b4;"></polygon><polygon points="244.25 49.86 234.79 33.49 234.79 32.52 244.81 49.86 244.25 49.86" style="fill:#3eb8b4;"></polygon><polygon points="243.69 49.86 234.79 34.46 234.79 33.49 244.25 49.86 243.69 49.86" style="fill:#3fb9b5;"></polygon><polygon points="243.13 49.86 234.79 35.42 234.79 34.46 243.69 49.86 243.13 49.86" style="fill:#40b9b5;"></polygon><polygon points="242.57 49.86 234.79 36.39 234.79 35.42 243.13 49.86 242.57 49.86" style="fill:#41bab6;"></polygon><polygon points="242.01 49.86 234.79 37.36 234.79 36.39 242.57 49.86 242.01 49.86" style="fill:#42bbb6;"></polygon><polygon points="241.45 49.86 234.79 38.33 234.79 37.36 242.01 49.86 241.45 49.86" style="fill:#43bcb7;"></polygon><polygon points="240.89 49.86 234.79 39.3 234.79 38.33 241.45 49.86 240.89 49.86" style="fill:#44bdb7;"></polygon><polygon points="240.33 49.86 234.79 40.27 234.79 39.3 240.89 49.86 240.33 49.86" style="fill:#45beb8;"></polygon><polygon points="239.77 49.86 234.79 41.23 234.79 40.27 240.33 49.86 239.77 49.86" style="fill:#46beb8;"></polygon><polygon points="239.22 49.86 234.79 42.2 234.79 41.23 239.77 49.86 239.22 49.86" style="fill:#47bfb9;"></polygon><polygon points="238.66 49.86 234.79 43.17 234.79 42.2 239.22 49.86 238.66 49.86" style="fill:#48c0b9;"></polygon><polygon points="234.79 43.17 238.66 49.86 234.79 49.86 234.79 43.17" style="fill:#48c0b9;"></polygon></g><g style="clip-path:url(#clippath-9);"><rect x="165.05" y="24.22" width=".7" height="9.26" style="fill:#008597;"></rect><rect x="165.75" y="24.22" width=".35" height="9.26" style="fill:#008597;"></rect><rect x="166.11" y="24.22" width=".35" height="9.26" style="fill:#018697;"></rect><rect x="166.46" y="24.22" width=".35" height="9.26" style="fill:#028798;"></rect><rect x="166.81" y="24.22" width=".35" height="9.26" style="fill:#038798;"></rect><rect x="167.16" y="24.22" width=".35" height="9.26" style="fill:#048899;"></rect><rect x="167.52" y="24.22" width=".35" height="9.26" style="fill:#058999;"></rect><rect x="167.87" y="24.22" width=".35" height="9.26" style="fill:#068a9a;"></rect><rect x="168.22" y="24.22" width=".35" height="9.26" style="fill:#078b9a;"></rect><rect x="168.58" y="24.22" width=".35" height="9.26" style="fill:#088c9b;"></rect><rect x="168.93" y="24.22" width=".35" height="9.26" style="fill:#098c9b;"></rect><rect x="169.28" y="24.22" width=".35" height="9.26" style="fill:#0a8d9c;"></rect><rect x="169.63" y="24.22" width=".35" height="9.26" style="fill:#0b8e9c;"></rect><rect x="169.99" y="24.22" width=".35" height="9.26" style="fill:#0c8f9d;"></rect><rect x="170.34" y="24.22" width=".35" height="9.26" style="fill:#0d909d;"></rect><rect x="170.69" y="24.22" width=".35" height="9.26" style="fill:#0e919e;"></rect><rect x="171.04" y="24.22" width=".35" height="9.26" style="fill:#0f919e;"></rect><rect x="171.4" y="24.22" width=".35" height="9.26" style="fill:#10929f;"></rect><rect x="171.75" y="24.22" width=".35" height="9.26" style="fill:#11939f;"></rect><rect x="172.1" y="24.22" width=".35" height="9.26" style="fill:#1294a0;"></rect><rect x="172.45" y="24.22" width=".35" height="9.26" style="fill:#1395a0;"></rect><rect x="172.81" y="24.22" width=".35" height="9.26" style="fill:#1496a1;"></rect><rect x="173.16" y="24.22" width=".35" height="9.26" style="fill:#1596a1;"></rect><rect x="173.51" y="24.22" width=".35" height="9.26" style="fill:#1697a2;"></rect><rect x="173.87" y="24.22" width=".35" height="9.26" style="fill:#1798a2;"></rect><rect x="174.22" y="24.22" width=".35" height="9.26" style="fill:#1899a2;"></rect><rect x="174.57" y="24.22" width=".35" height="9.26" style="fill:#199aa3;"></rect><rect x="174.92" y="24.22" width=".35" height="9.26" style="fill:#1a9ba3;"></rect><rect x="175.28" y="24.22" width=".35" height="9.26" style="fill:#1b9ba4;"></rect><rect x="175.63" y="24.22" width=".35" height="9.26" style="fill:#1c9ca4;"></rect><rect x="175.98" y="24.22" width=".35" height="9.26" style="fill:#1d9da5;"></rect><rect x="176.33" y="24.22" width=".35" height="9.26" style="fill:#1e9ea5;"></rect><rect x="176.69" y="24.22" width=".35" height="9.26" style="fill:#1f9fa6;"></rect><rect x="177.04" y="24.22" width=".35" height="9.26" style="fill:#20a0a6;"></rect><rect x="177.39" y="24.22" width=".35" height="9.26" style="fill:#21a0a7;"></rect><rect x="177.74" y="24.22" width=".35" height="9.26" style="fill:#22a1a7;"></rect><rect x="178.1" y="24.22" width=".35" height="9.26" style="fill:#23a2a8;"></rect><rect x="178.45" y="24.22" width=".35" height="9.26" style="fill:#25a3a8;"></rect><rect x="178.8" y="24.22" width=".35" height="9.26" style="fill:#26a4a9;"></rect><rect x="179.16" y="24.22" width=".35" height="9.26" style="fill:#27a5a9;"></rect><rect x="179.51" y="24.22" width=".35" height="9.26" style="fill:#28a5aa;"></rect><rect x="179.86" y="24.22" width=".35" height="9.26" style="fill:#29a6aa;"></rect><rect x="180.21" y="24.22" width=".35" height="9.26" style="fill:#2aa7ab;"></rect><rect x="180.57" y="24.22" width=".35" height="9.26" style="fill:#2ba8ab;"></rect><rect x="180.92" y="24.22" width=".35" height="9.26" style="fill:#2ca9ac;"></rect><rect x="181.27" y="24.22" width=".35" height="9.26" style="fill:#2daaac;"></rect><rect x="181.62" y="24.22" width=".35" height="9.26" style="fill:#2eaaad;"></rect><rect x="181.98" y="24.22" width=".35" height="9.26" style="fill:#2fabad;"></rect><rect x="182.33" y="24.22" width=".35" height="9.26" style="fill:#30acae;"></rect><rect x="182.68" y="24.22" width=".35" height="9.26" style="fill:#31adae;"></rect><rect x="183.03" y="24.22" width=".35" height="9.26" style="fill:#32aeae;"></rect><rect x="183.39" y="24.22" width=".35" height="9.26" style="fill:#33afaf;"></rect><rect x="183.74" y="24.22" width=".35" height="9.26" style="fill:#34afaf;"></rect><rect x="184.09" y="24.22" width=".35" height="9.26" style="fill:#35b0b0;"></rect><rect x="184.45" y="24.22" width=".35" height="9.26" style="fill:#36b1b0;"></rect><rect x="184.8" y="24.22" width=".35" height="9.26" style="fill:#37b2b1;"></rect><rect x="185.15" y="24.22" width=".35" height="9.26" style="fill:#38b3b1;"></rect><rect x="185.5" y="24.22" width=".35" height="9.26" style="fill:#39b4b2;"></rect><rect x="185.86" y="24.22" width=".35" height="9.26" style="fill:#3ab4b2;"></rect><rect x="186.21" y="24.22" width=".35" height="9.26" style="fill:#3bb5b3;"></rect><rect x="186.56" y="24.22" width=".35" height="9.26" style="fill:#3cb6b3;"></rect><rect x="186.91" y="24.22" width=".35" height="9.26" style="fill:#3db7b4;"></rect><rect x="187.27" y="24.22" width=".35" height="9.26" style="fill:#3eb8b4;"></rect><rect x="187.62" y="24.22" width=".35" height="9.26" style="fill:#3fb9b5;"></rect><rect x="187.97" y="24.22" width=".35" height="9.26" style="fill:#40b9b5;"></rect><rect x="188.32" y="24.22" width=".35" height="9.26" style="fill:#41bab6;"></rect><rect x="188.68" y="24.22" width=".35" height="9.26" style="fill:#42bbb6;"></rect><rect x="189.03" y="24.22" width=".35" height="9.26" style="fill:#43bcb7;"></rect><rect x="189.38" y="24.22" width=".35" height="9.26" style="fill:#44bdb7;"></rect><rect x="189.74" y="24.22" width=".35" height="9.26" style="fill:#45beb8;"></rect><rect x="190.09" y="24.22" width=".35" height="9.26" style="fill:#46beb8;"></rect><rect x="190.44" y="24.22" width=".35" height="9.26" style="fill:#47bfb9;"></rect><rect x="190.79" y="24.22" width=".35" height="9.26" style="fill:#48c0b9;"></rect></g><path d="M249.34,33.25c-5.85-1.17-12.26-3.34-12.26-11.49s7.08-13.27,15.95-13.27c7.02,0,12.54,2.73,15.72,6.19l-5.91,7.36c-2.62-2.9-6.13-4.57-10.09-4.57-2.95,0-4.96,1.12-4.96,3.18,0,2.29,2.45,2.67,7.3,3.68l-5.74,8.92Z" style="fill:#008597;"></path><g style="clip-path:url(#clippath-10);"><rect x="165.05" y="9.16" width=".79" height="9.26" style="fill:#008597;"></rect><rect x="165.84" y="9.16" width=".39" height="9.26" style="fill:#008597;"></rect><rect x="166.23" y="9.16" width=".39" height="9.26" style="fill:#018697;"></rect><rect x="166.63" y="9.16" width=".39" height="9.26" style="fill:#028798;"></rect><rect x="167.02" y="9.16" width=".39" height="9.26" style="fill:#038798;"></rect><rect x="167.41" y="9.16" width=".39" height="9.26" style="fill:#048899;"></rect><rect x="167.81" y="9.16" width=".39" height="9.26" style="fill:#058999;"></rect><rect x="168.2" y="9.16" width=".39" height="9.26" style="fill:#068a9a;"></rect><rect x="168.6" y="9.16" width=".39" height="9.26" style="fill:#078b9a;"></rect><rect x="168.99" y="9.16" width=".39" height="9.26" style="fill:#088c9b;"></rect><rect x="169.38" y="9.16" width=".39" height="9.26" style="fill:#098c9b;"></rect><rect x="169.78" y="9.16" width=".39" height="9.26" style="fill:#0a8d9c;"></rect><rect x="170.17" y="9.16" width=".39" height="9.26" style="fill:#0b8e9c;"></rect><rect x="170.57" y="9.16" width=".39" height="9.26" style="fill:#0c8f9d;"></rect><rect x="170.96" y="9.16" width=".39" height="9.26" style="fill:#0d909d;"></rect><rect x="171.35" y="9.16" width=".39" height="9.26" style="fill:#0e919e;"></rect><rect x="171.75" y="9.16" width=".39" height="9.26" style="fill:#0f919e;"></rect><rect x="172.14" y="9.16" width=".39" height="9.26" style="fill:#10929f;"></rect><rect x="172.54" y="9.16" width=".39" height="9.26" style="fill:#11939f;"></rect><rect x="172.93" y="9.16" width=".39" height="9.26" style="fill:#1294a0;"></rect><rect x="173.33" y="9.16" width=".39" height="9.26" style="fill:#1395a0;"></rect><rect x="173.72" y="9.16" width=".39" height="9.26" style="fill:#1496a1;"></rect><rect x="174.11" y="9.16" width=".39" height="9.26" style="fill:#1596a1;"></rect><rect x="174.51" y="9.16" width=".39" height="9.26" style="fill:#1697a2;"></rect><rect x="174.9" y="9.16" width=".39" height="9.26" style="fill:#1798a2;"></rect><rect x="175.3" y="9.16" width=".39" height="9.26" style="fill:#1899a2;"></rect><rect x="175.69" y="9.16" width=".39" height="9.26" style="fill:#199aa3;"></rect><rect x="176.08" y="9.16" width=".39" height="9.26" style="fill:#1a9ba3;"></rect><rect x="176.48" y="9.16" width=".39" height="9.26" style="fill:#1b9ba4;"></rect><rect x="176.87" y="9.16" width=".39" height="9.26" style="fill:#1c9ca4;"></rect><rect x="177.27" y="9.16" width=".39" height="9.26" style="fill:#1d9da5;"></rect><rect x="177.66" y="9.16" width=".39" height="9.26" style="fill:#1e9ea5;"></rect><rect x="178.05" y="9.16" width=".39" height="9.26" style="fill:#1f9fa6;"></rect><rect x="178.45" y="9.16" width=".39" height="9.26" style="fill:#20a0a6;"></rect><rect x="178.84" y="9.16" width=".39" height="9.26" style="fill:#21a0a7;"></rect><rect x="179.24" y="9.16" width=".39" height="9.26" style="fill:#22a1a7;"></rect><rect x="179.63" y="9.16" width=".39" height="9.26" style="fill:#23a2a8;"></rect><rect x="180.03" y="9.16" width=".39" height="9.26" style="fill:#25a3a8;"></rect><rect x="180.42" y="9.16" width=".39" height="9.26" style="fill:#26a4a9;"></rect><rect x="180.81" y="9.16" width=".39" height="9.26" style="fill:#27a5a9;"></rect><rect x="181.21" y="9.16" width=".39" height="9.26" style="fill:#28a5aa;"></rect><rect x="181.6" y="9.16" width=".39" height="9.26" style="fill:#29a6aa;"></rect><rect x="182" y="9.16" width=".39" height="9.26" style="fill:#2aa7ab;"></rect><rect x="182.39" y="9.16" width=".39" height="9.26" style="fill:#2ba8ab;"></rect><rect x="182.78" y="9.16" width=".39" height="9.26" style="fill:#2ca9ac;"></rect><rect x="183.18" y="9.16" width=".39" height="9.26" style="fill:#2daaac;"></rect><rect x="183.57" y="9.16" width=".39" height="9.26" style="fill:#2eaaad;"></rect><rect x="183.97" y="9.16" width=".39" height="9.26" style="fill:#2fabad;"></rect><rect x="184.36" y="9.16" width=".39" height="9.26" style="fill:#30acae;"></rect><rect x="184.75" y="9.16" width=".39" height="9.26" style="fill:#31adae;"></rect><rect x="185.15" y="9.16" width=".39" height="9.26" style="fill:#32aeae;"></rect><rect x="185.54" y="9.16" width=".39" height="9.26" style="fill:#33afaf;"></rect><rect x="185.94" y="9.16" width=".39" height="9.26" style="fill:#34afaf;"></rect><rect x="186.33" y="9.16" width=".39" height="9.26" style="fill:#35b0b0;"></rect><rect x="186.73" y="9.16" width=".39" height="9.26" style="fill:#36b1b0;"></rect><rect x="187.12" y="9.16" width=".39" height="9.26" style="fill:#37b2b1;"></rect><rect x="187.51" y="9.16" width=".39" height="9.26" style="fill:#38b3b1;"></rect><rect x="187.91" y="9.16" width=".39" height="9.26" style="fill:#39b4b2;"></rect><rect x="188.3" y="9.16" width=".39" height="9.26" style="fill:#3ab4b2;"></rect><rect x="188.7" y="9.16" width=".39" height="9.26" style="fill:#3bb5b3;"></rect><rect x="189.09" y="9.16" width=".39" height="9.26" style="fill:#3cb6b3;"></rect><rect x="189.48" y="9.16" width=".39" height="9.26" style="fill:#3db7b4;"></rect><rect x="189.88" y="9.16" width=".39" height="9.26" style="fill:#3eb8b4;"></rect><rect x="190.27" y="9.16" width=".39" height="9.26" style="fill:#3fb9b5;"></rect><rect x="190.67" y="9.16" width=".39" height="9.26" style="fill:#40b9b5;"></rect><rect x="191.06" y="9.16" width=".39" height="9.26" style="fill:#41bab6;"></rect><rect x="191.46" y="9.16" width=".39" height="9.26" style="fill:#42bbb6;"></rect><rect x="191.85" y="9.16" width=".39" height="9.26" style="fill:#43bcb7;"></rect><rect x="192.24" y="9.16" width=".39" height="9.26" style="fill:#44bdb7;"></rect><rect x="192.64" y="9.16" width=".39" height="9.26" style="fill:#45beb8;"></rect><rect x="193.03" y="9.16" width=".39" height="9.26" style="fill:#46beb8;"></rect><rect x="193.43" y="9.16" width=".39" height="9.26" style="fill:#47bfb9;"></rect><rect x="193.82" y="9.16" width=".39" height="9.26" style="fill:#48c0b9;"></rect></g></g></g><g><path d="M303.23,24.09l6.32-19.89h3.28l6.32,19.89h-2.75l-1.36-4.44h-7.89l-1.36,4.44h-2.55Zm4.61-6.76h6.47l-2.7-8.85c-.06-.23-.13-.52-.2-.87-.08-.35-.16-.79-.26-1.33h-.12c-.1,.56-.18,1.02-.25,1.36-.07,.35-.14,.63-.22,.84l-2.73,8.85Z" style="fill:#1a5b6e;"></path><path d="M325.01,24.44c-1.45,0-2.6-.63-3.45-1.9-.85-1.27-1.28-3.3-1.28-6.1,0-1.86,.2-3.37,.61-4.54,.41-1.17,.96-2.03,1.65-2.58,.7-.55,1.46-.83,2.29-.83,.74,0,1.4,.16,1.99,.48,.59,.32,1.01,.76,1.26,1.32h.15V3.12h2.38V24.09h-1.8l-.32-1.77h-.14c-.37,.7-.84,1.22-1.42,1.58-.58,.36-1.22,.54-1.91,.54Zm.49-2.12c.91,0,1.59-.44,2.04-1.33s.68-2.21,.68-3.97v-.99c0-1.8-.23-3.15-.68-4.06-.45-.91-1.14-1.36-2.04-1.36s-1.59,.41-2.04,1.23c-.46,.82-.68,2.18-.68,4.07v1.1c0,1.9,.23,3.25,.68,4.08,.45,.82,1.14,1.23,2.04,1.23Z" style="fill:#1a5b6e;"></path><path d="M337.01,24.09l-4.38-15.25h2.61l2.06,7.74c.1,.31,.19,.63,.28,.96,.09,.33,.17,.65,.26,.97,.09,.32,.17,.64,.26,.96,.09,.32,.17,.64,.25,.97h.12c.1-.33,.19-.66,.28-.99s.17-.66,.26-.99c.09-.33,.17-.66,.26-.99,.09-.33,.17-.66,.25-.99l2.06-7.66h2.41l-4.38,15.25h-2.58Z" style="fill:#1a5b6e;"></path><path d="M349.22,24.44c-.37,0-.78-.05-1.25-.16s-.9-.31-1.32-.61c-.42-.3-.76-.73-1.03-1.29-.27-.56-.41-1.3-.41-2.23,0-1.41,.33-2.48,1-3.21,.67-.72,1.58-1.22,2.76-1.49,1.17-.27,2.49-.41,3.96-.41v-1.97c0-.73-.16-1.33-.48-1.78-.32-.45-.96-.68-1.93-.68-.89,0-1.5,.26-1.84,.77-.34,.51-.51,1.06-.51,1.64v.35h-2.35c-.02-.1-.03-.19-.03-.29v-.35c0-1.39,.46-2.45,1.38-3.16s2.09-1.07,3.52-1.07c1.55,0,2.7,.37,3.47,1.12s1.15,1.79,1.15,3.15v8.55c0,.37,.09,.63,.26,.78,.17,.16,.36,.23,.55,.23h.93v1.65c-.14,.08-.33,.16-.59,.23s-.58,.12-.97,.12c-.62,0-1.14-.17-1.55-.52-.42-.35-.7-.8-.86-1.36h-.15c-.39,.62-.9,1.11-1.55,1.46s-1.37,.54-2.16,.54Zm.55-2.12c.5,0,1-.14,1.48-.42,.48-.28,.88-.7,1.2-1.26,.32-.56,.48-1.26,.48-2.09v-1.39c-1.04,0-1.96,.07-2.74,.22-.78,.14-1.39,.42-1.83,.83-.44,.41-.65,1.01-.65,1.8,0,.87,.18,1.47,.54,1.81,.36,.34,.87,.51,1.52,.51Z" style="fill:#1a5b6e;"></path><path d="M359.2,24.09V8.83h1.8l.32,1.77h.17c.42-.75,.96-1.3,1.59-1.62,.64-.33,1.33-.49,2.09-.49,1.14,0,2.05,.34,2.74,1.03,.69,.69,1.03,1.88,1.03,3.58v10.99h-2.38V13.27c0-1.06-.2-1.77-.59-2.13-.4-.36-.91-.54-1.55-.54-.75,0-1.42,.37-1.99,1.1-.57,.74-.86,1.76-.86,3.07v9.31h-2.38Z" style="fill:#1a5b6e;"></path><path d="M376.95,24.44c-1.8,0-3.12-.64-3.96-1.93s-1.26-3.3-1.26-6.05,.43-4.76,1.28-6.05,2.17-1.93,3.94-1.93c1.66,0,2.86,.51,3.58,1.54,.72,1.02,1.09,2.51,1.09,4.47h-2.47c0-1.31-.15-2.29-.46-2.93-.31-.64-.89-.96-1.74-.96-.95,0-1.64,.44-2.07,1.33-.43,.89-.65,2.21-.65,3.97v1.1c0,1.76,.22,3.08,.65,3.97,.44,.89,1.13,1.33,2.07,1.33,.85,0,1.45-.33,1.8-1,.35-.67,.52-1.63,.52-2.88h2.35c0,1.06-.16,2.05-.46,2.96-.31,.91-.81,1.64-1.49,2.2s-1.59,.84-2.71,.84Z" style="fill:#1a5b6e;"></path><path d="M384.63,5.88V3.12h2.46v2.75h-2.46Zm.06,18.21V8.83h2.38v15.25h-2.38Z" style="fill:#1a5b6e;"></path><path d="M390.92,24.09V8.83h1.8l.32,1.77h.17c.43-.75,.96-1.3,1.6-1.62,.64-.33,1.33-.49,2.09-.49,1.14,0,2.05,.34,2.74,1.03s1.03,1.88,1.03,3.58v10.99h-2.38V13.27c0-1.06-.2-1.77-.59-2.13-.4-.36-.91-.54-1.55-.54-.75,0-1.42,.37-1.99,1.1-.57,.74-.86,1.76-.86,3.07v9.31h-2.38Z" style="fill:#1a5b6e;"></path><path d="M406.55,29.37c-1.24,0-2.17-.35-2.81-1.06-.64-.71-.96-1.56-.96-2.57,0-.74,.18-1.4,.54-2,.36-.6,.84-1.01,1.44-1.25-.39-.25-.69-.58-.91-1-.22-.42-.33-.84-.33-1.29,0-.62,.2-1.16,.59-1.61s.91-.8,1.55-1.03c-.54-.45-.97-1-1.29-1.67-.32-.67-.48-1.43-.48-2.28,0-1.6,.44-2.86,1.33-3.77s2.11-1.36,3.65-1.36c.79,0,1.53,.18,2.2,.55,.68-.37,1.14-.78,1.39-1.25,.25-.46,.42-.94,.49-1.42h2.09c0,.91-.23,1.69-.68,2.35-.46,.66-1.08,1.09-1.87,1.31,.42,.43,.76,.94,1,1.55,.24,.61,.36,1.29,.36,2.04,0,1.59-.44,2.83-1.32,3.74-.88,.91-2.06,1.37-3.55,1.39h-1.6c-.39,0-.71,.13-.99,.39-.27,.26-.41,.58-.41,.97s.14,.69,.42,.96c.28,.27,.6,.41,.97,.41h4.35c1.1,0,1.98,.35,2.62,1.06,.65,.71,.97,1.54,.97,2.51,0,.79-.17,1.52-.51,2.17-.34,.66-.84,1.18-1.51,1.57s-1.48,.58-2.45,.58h-4.32Zm.38-2.06h4.21c.5,0,.93-.18,1.28-.54s.52-.78,.52-1.26-.15-.92-.44-1.26c-.29-.34-.74-.51-1.36-.51h-4.21c-.6,0-1.04,.17-1.33,.51-.29,.34-.43,.76-.43,1.26s.14,.9,.43,1.26,.73,.54,1.33,.54Zm1.91-10.53c.85,0,1.5-.29,1.94-.86,.44-.57,.67-1.34,.67-2.31,0-1.02-.22-1.81-.67-2.35-.45-.54-1.09-.81-1.94-.81s-1.47,.29-1.91,.86c-.44,.57-.67,1.34-.67,2.31s.22,1.78,.67,2.33c.45,.55,1.08,.83,1.91,.83Z" style="fill:#1a5b6e;"></path><path d="M305.29,54.89v-19.89h2.55v19.89h-2.55Z" style="fill:#1a5b6e;"></path><path d="M311.61,54.89v-15.25h1.8l.32,1.77h.17c.42-.75,.96-1.29,1.59-1.62,.64-.33,1.33-.49,2.09-.49,1.14,0,2.05,.34,2.74,1.03s1.03,1.88,1.03,3.58v10.99h-2.38v-10.82c0-1.06-.2-1.77-.59-2.13-.4-.36-.91-.54-1.55-.54-.75,0-1.42,.37-1.99,1.1-.57,.73-.86,1.76-.86,3.07v9.31h-2.38Z" style="fill:#1a5b6e;"></path><path d="M324.83,54.89v-15.25h1.8l.32,1.77h.17c.42-.75,.96-1.29,1.59-1.62,.64-.33,1.33-.49,2.09-.49,1.14,0,2.05,.34,2.74,1.03s1.03,1.88,1.03,3.58v10.99h-2.38v-10.82c0-1.06-.2-1.77-.59-2.13-.4-.36-.91-.54-1.55-.54-.75,0-1.42,.37-1.99,1.1-.57,.73-.86,1.76-.86,3.07v9.31h-2.38Z" style="fill:#1a5b6e;"></path><path d="M342.93,55.24c-1.78,0-3.13-.64-4.06-1.93-.93-1.29-1.39-3.3-1.39-6.05s.46-4.76,1.39-6.05c.93-1.29,2.28-1.93,4.06-1.93s3.13,.64,4.06,1.93c.93,1.29,1.39,3.3,1.39,6.05s-.46,4.76-1.39,6.05c-.93,1.29-2.28,1.93-4.06,1.93Zm0-2.12c.99,0,1.73-.45,2.22-1.33,.49-.89,.74-2.21,.74-3.97v-1.1c0-1.76-.25-3.08-.74-3.97-.49-.89-1.23-1.33-2.22-1.33s-1.73,.45-2.22,1.33c-.49,.89-.74,2.21-.74,3.97v1.1c0,1.76,.25,3.08,.74,3.97,.49,.89,1.23,1.33,2.22,1.33Z" style="fill:#1a5b6e;"></path><path d="M354.21,54.89l-4.38-15.25h2.61l2.06,7.74c.1,.31,.19,.63,.28,.96s.17,.65,.26,.97c.09,.32,.17,.64,.26,.96,.09,.32,.17,.64,.25,.97h.12c.1-.33,.19-.66,.28-.99s.17-.66,.26-.99c.09-.33,.17-.66,.26-.99,.09-.33,.17-.66,.25-.99l2.06-7.66h2.41l-4.38,15.25h-2.58Z" style="fill:#1a5b6e;"></path><path d="M366.42,55.24c-.37,0-.78-.05-1.25-.16s-.9-.31-1.32-.61c-.42-.3-.76-.73-1.03-1.29-.27-.56-.41-1.3-.41-2.23,0-1.41,.33-2.48,1-3.2s1.58-1.22,2.76-1.49c1.17-.27,2.49-.41,3.96-.41v-1.97c0-.73-.16-1.33-.48-1.78s-.96-.68-1.93-.68c-.89,0-1.5,.26-1.84,.77-.34,.51-.51,1.06-.51,1.64v.35h-2.35c-.02-.1-.03-.19-.03-.29v-.35c0-1.39,.46-2.45,1.38-3.16,.92-.71,2.09-1.07,3.52-1.07,1.55,0,2.7,.37,3.47,1.12s1.15,1.79,1.15,3.15v8.55c0,.37,.09,.63,.26,.78,.17,.16,.36,.23,.55,.23h.93v1.65c-.14,.08-.33,.15-.59,.23-.26,.08-.58,.12-.97,.12-.62,0-1.14-.17-1.55-.52-.42-.35-.7-.8-.86-1.36h-.15c-.39,.62-.9,1.11-1.55,1.46s-1.37,.54-2.16,.54Zm.55-2.12c.5,0,1-.14,1.48-.42,.48-.28,.88-.7,1.2-1.26,.32-.56,.48-1.26,.48-2.09v-1.39c-1.04,0-1.96,.07-2.74,.22-.78,.15-1.39,.42-1.83,.83-.44,.41-.65,1-.65,1.8,0,.87,.18,1.47,.54,1.81s.87,.51,1.52,.51Z" style="fill:#1a5b6e;"></path><path d="M379.09,55.18c-.7,0-1.24-.17-1.64-.52-.4-.35-.68-.79-.84-1.32-.17-.53-.25-1.09-.25-1.67v-9.92h-1.3v-2.12h1.3l.52-4.23h1.86v4.23h2.06v2.12h-2.06v9.98c0,.93,.45,1.39,1.36,1.39h.7v1.65c-.19,.12-.46,.21-.78,.29-.33,.08-.64,.12-.93,.12Z" style="fill:#1a5b6e;"></path><path d="M383.33,36.68v-2.75h2.46v2.75h-2.46Zm.06,18.21v-15.25h2.38v15.25h-2.38Z" style="fill:#1a5b6e;"></path><path d="M394.49,55.24c-1.78,0-3.13-.64-4.06-1.93-.93-1.29-1.39-3.3-1.39-6.05s.46-4.76,1.39-6.05c.93-1.29,2.28-1.93,4.06-1.93s3.13,.64,4.06,1.93c.93,1.29,1.39,3.3,1.39,6.05s-.46,4.76-1.39,6.05c-.93,1.29-2.28,1.93-4.06,1.93Zm0-2.12c.99,0,1.73-.45,2.22-1.33,.49-.89,.74-2.21,.74-3.97v-1.1c0-1.76-.25-3.08-.74-3.97-.49-.89-1.23-1.33-2.22-1.33s-1.73,.45-2.22,1.33c-.49,.89-.74,2.21-.74,3.97v1.1c0,1.76,.25,3.08,.74,3.97,.49,.89,1.23,1.33,2.22,1.33Z" style="fill:#1a5b6e;"></path><path d="M402.84,54.89v-15.25h1.8l.32,1.77h.17c.42-.75,.96-1.29,1.59-1.62,.64-.33,1.33-.49,2.09-.49,1.14,0,2.05,.34,2.74,1.03,.69,.69,1.03,1.88,1.03,3.58v10.99h-2.38v-10.82c0-1.06-.2-1.77-.59-2.13-.4-.36-.91-.54-1.55-.54-.75,0-1.42,.37-1.99,1.1-.57,.73-.86,1.76-.86,3.07v9.31h-2.38Z" style="fill:#1a5b6e;"></path></g><line x1="285.69" x2="285.69" y2="58.36" style="fill:none; stroke:#1c5c6f; stroke-miterlimit:10;"></line></svg> 